/Videos/3ed555f23571a4d0546ab9d287d98a0e/hls1/main/102.mp4

{"Protocol":0,"Id":"3ed555f23571a4d0546ab9d287d98a0e","Path":"/data/tvshows/Secret Invasion/Season 1/Secret Invasion - S01E02 - Promises WEBDL-2160p.mkv","EncoderPath":null,"EncoderProtocol":null,"Type":0,"Container":"mkv,webm","Size":5809070080,"Name":"Secret Invasion - S01E02 - Promises WEBDL-2160p","IsRemote":false,"ETag":"0a5617706dcb9dff7573d68310aed4cf","RunTimeTicks":33350080512,"ReadAtNativeFramerate":false,"IgnoreDts":false,"IgnoreIndex":false,"GenPtsInput":false,"SupportsTranscoding":true,"SupportsDirectStream":true,"SupportsDirectPlay":true,"IsInfiniteStream":false,"RequiresOpening":false,"OpenToken":null,"RequiresClosing":false,"LiveStreamId":null,"BufferMs":null,"RequiresLooping":false,"SupportsProbing":true,"VideoType":0,"IsoType":null,"Video3DFormat":null,"MediaStreams":[{"Codec":"hevc","CodecTag":null,"Language":null,"ColorRange":null,"ColorSpace":"bt709","ColorTransfer":"bt709","ColorPrimaries":"bt709","DvVersionMajor":null,"DvVersionMinor":null,"DvProfile":null,"DvLevel":null,"RpuPresentFlag":null,"ElPresentFlag":null,"BlPresentFlag":null,"DvBlSignalCompatibilityId":null,"Comment":null,"TimeBase":"1/1000","CodecTimeBase":null,"Title":null,"VideoRange":"SDR","VideoRangeType":"SDR","VideoDoViTitle":null,"LocalizedUndefined":null,"LocalizedDefault":null,"LocalizedForced":null,"LocalizedExternal":null,"DisplayTitle":"4K HEVC SDR","NalLengthSize":null,"IsInterlaced":false,"IsAVC":null,"ChannelLayout":null,"BitRate":13934766,"BitDepth":8,"RefFrames":1,"PacketLength":null,"Channels":null,"SampleRate":null,"IsDefault":true,"IsForced":false,"Height":2160,"Width":3840,"AverageFrameRate":24,"RealFrameRate":24,"Profile":"Main","Type":1,"AspectRatio":"16:9","Index":0,"Score":null,"IsExternal":false,"DeliveryMethod":null,"DeliveryUrl":null,"IsExternalUrl":null,"IsTextSubtitleStream":false,"SupportsExternalStream":false,"Path":null,"PixelFormat":"yuv420p","Level":150,"IsAnamorphic":null},{"Codec":"eac3","CodecTag":null,"Language":"eng","ColorRange":null,"ColorSpace":null,"ColorTransfer":null,"ColorPrimaries":null,"DvVersionMajor":null,"DvVersionMinor":null,"DvProfile":null,"DvLevel":null,"RpuPresentFlag":null,"ElPresentFlag":null,"BlPresentFlag":null,"DvBlSignalCompatibilityId":null,"Comment":null,"TimeBase":"1/1000","CodecTimeBase":null,"Title":null,"VideoRange":null,"VideoRangeType":null,"VideoDoViTitle":null,"LocalizedUndefined":null,"LocalizedDefault":null,"LocalizedForced":null,"LocalizedExternal":null,"DisplayTitle":"English - Dolby Digital\u002B - 5.1 - Default","NalLengthSize":null,"IsInterlaced":false,"IsAVC":null,"ChannelLayout":"5.1","BitRate":768000,"BitDepth":null,"RefFrames":null,"PacketLength":null,"Channels":6,"SampleRate":48000,"IsDefault":true,"IsForced":false,"Height":null,"Width":null,"AverageFrameRate":null,"RealFrameRate":null,"Profile":null,"Type":0,"AspectRatio":null,"Index":1,"Score":null,"IsExternal":false,"DeliveryMethod":null,"DeliveryUrl":null,"IsExternalUrl":null,"IsTextSubtitleStream":false,"SupportsExternalStream":false,"Path":null,"PixelFormat":null,"Level":0,"IsAnamorphic":null},{"Codec":"subrip","CodecTag":null,"Language":"eng","ColorRange":null,"ColorSpace":null,"ColorTransfer":null,"ColorPrimaries":null,"DvVersionMajor":null,"DvVersionMinor":null,"DvProfile":null,"DvLevel":null,"RpuPresentFlag":null,"ElPresentFlag":null,"BlPresentFlag":null,"DvBlSignalCompatibilityId":null,"Comment":null,"TimeBase":"1/1000","CodecTimeBase":null,"Title":null,"VideoRange":null,"VideoRangeType":null,"VideoDoViTitle":null,"LocalizedUndefined":"Undefined","LocalizedDefault":"Default","LocalizedForced":"Forced","LocalizedExternal":"External","DisplayTitle":"English - SUBRIP","NalLengthSize":null,"IsInterlaced":false,"IsAVC":null,"ChannelLayout":null,"BitRate":null,"BitDepth":null,"RefFrames":null,"PacketLength":null,"Channels":null,"SampleRate":null,"IsDefault":false,"IsForced":false,"Height":null,"Width":null,"AverageFrameRate":null,"RealFrameRate":null,"Profile":null,"Type":2,"AspectRatio":null,"Index":2,"Score":null,"IsExternal":false,"DeliveryMethod":null,"DeliveryUrl":null,"IsExternalUrl":null,"IsTextSubtitleStream":true,"SupportsExternalStream":true,"Path":null,"PixelFormat":null,"Level":0,"IsAnamorphic":null},{"Codec":"subrip","CodecTag":null,"Language":"eng","ColorRange":null,"ColorSpace":null,"ColorTransfer":null,"ColorPrimaries":null,"DvVersionMajor":null,"DvVersionMinor":null,"DvProfile":null,"DvLevel":null,"RpuPresentFlag":null,"ElPresentFlag":null,"BlPresentFlag":null,"DvBlSignalCompatibilityId":null,"Comment":null,"TimeBase":"1/1000","CodecTimeBase":null,"Title":"SDH","VideoRange":null,"VideoRangeType":null,"VideoDoViTitle":null,"LocalizedUndefined":"Undefined","LocalizedDefault":"Default","LocalizedForced":"Forced","LocalizedExternal":"External","DisplayTitle":"SDH - English - SUBRIP","NalLengthSize":null,"IsInterlaced":false,"IsAVC":null,"ChannelLayout":null,"BitRate":null,"BitDepth":null,"RefFrames":null,"PacketLength":null,"Channels":null,"SampleRate":null,"IsDefault":false,"IsForced":false,"Height":null,"Width":null,"AverageFrameRate":null,"RealFrameRate":null,"Profile":null,"Type":2,"AspectRatio":null,"Index":3,"Score":null,"IsExternal":false,"DeliveryMethod":null,"DeliveryUrl":null,"IsExternalUrl":null,"IsTextSubtitleStream":true,"SupportsExternalStream":true,"Path":null,"PixelFormat":null,"Level":0,"IsAnamorphic":null},{"Codec":"subrip","CodecTag":null,"Language":"cze","ColorRange":null,"ColorSpace":null,"ColorTransfer":null,"ColorPrimaries":null,"DvVersionMajor":null,"DvVersionMinor":null,"DvProfile":null,"DvLevel":null,"RpuPresentFlag":null,"ElPresentFlag":null,"BlPresentFlag":null,"DvBlSignalCompatibilityId":null,"Comment":null,"TimeBase":"1/1000","CodecTimeBase":null,"Title":null,"VideoRange":null,"VideoRangeType":null,"VideoDoViTitle":null,"LocalizedUndefined":"Undefined","LocalizedDefault":"Default","LocalizedForced":"Forced","LocalizedExternal":"External","DisplayTitle":"Cze - SUBRIP","NalLengthSize":null,"IsInterlaced":false,"IsAVC":null,"ChannelLayout":null,"BitRate":null,"BitDepth":null,"RefFrames":null,"PacketLength":null,"Channels":null,"SampleRate":null,"IsDefault":false,"IsForced":false,"Height":null,"Width":null,"AverageFrameRate":null,"RealFrameRate":null,"Profile":null,"Type":2,"AspectRatio":null,"Index":4,"Score":null,"IsExternal":false,"DeliveryMethod":null,"DeliveryUrl":null,"IsExternalUrl":null,"IsTextSubtitleStream":true,"SupportsExternalStream":true,"Path":null,"PixelFormat":null,"Level":0,"IsAnamorphic":null},{"Codec":"subrip","CodecTag":null,"Language":"dan","ColorRange":null,"ColorSpace":null,"ColorTransfer":null,"ColorPrimaries":null,"DvVersionMajor":null,"DvVersionMinor":null,"DvProfile":null,"DvLevel":null,"RpuPresentFlag":null,"ElPresentFlag":null,"BlPresentFlag":null,"DvBlSignalCompatibilityId":null,"Comment":null,"TimeBase":"1/1000","CodecTimeBase":null,"Title":null,"VideoRange":null,"VideoRangeType":null,"VideoDoViTitle":null,"LocalizedUndefined":"Undefined","LocalizedDefault":"Default","LocalizedForced":"Forced","LocalizedExternal":"External","DisplayTitle":"Danish - SUBRIP","NalLengthSize":null,"IsInterlaced":false,"IsAVC":null,"ChannelLayout":null,"BitRate":null,"BitDepth":null,"RefFrames":null,"PacketLength":null,"Channels":null,"SampleRate":null,"IsDefault":false,"IsForced":false,"Height":null,"Width":null,"AverageFrameRate":null,"RealFrameRate":null,"Profile":null,"Type":2,"AspectRatio":null,"Index":5,"Score":null,"IsExternal":false,"DeliveryMethod":null,"DeliveryUrl":null,"IsExternalUrl":null,"IsTextSubtitleStream":true,"SupportsExternalStream":true,"Path":null,"PixelFormat":null,"Level":0,"IsAnamorphic":null},{"Codec":"subrip","CodecTag":null,"Language":"ger","ColorRange":null,"ColorSpace":null,"ColorTransfer":null,"ColorPrimaries":null,"DvVersionMajor":null,"DvVersionMinor":null,"DvProfile":null,"DvLevel":null,"RpuPresentFlag":null,"ElPresentFlag":null,"BlPresentFlag":null,"DvBlSignalCompatibilityId":null,"Comment":null,"TimeBase":"1/1000","CodecTimeBase":null,"Title":null,"VideoRange":null,"VideoRangeType":null,"VideoDoViTitle":null,"LocalizedUndefined":"Undefined","LocalizedDefault":"Default","LocalizedForced":"Forced","LocalizedExternal":"External","DisplayTitle":"Ger - SUBRIP","NalLengthSize":null,"IsInterlaced":false,"IsAVC":null,"ChannelLayout":null,"BitRate":null,"BitDepth":null,"RefFrames":null,"PacketLength":null,"Channels":null,"SampleRate":null,"IsDefault":false,"IsForced":false,"Height":null,"Width":null,"AverageFrameRate":null,"RealFrameRate":null,"Profile":null,"Type":2,"AspectRatio":null,"Index":6,"Score":null,"IsExternal":false,"DeliveryMethod":null,"DeliveryUrl":null,"IsExternalUrl":null,"IsTextSubtitleStream":true,"SupportsExternalStream":true,"Path":null,"PixelFormat":null,"Level":0,"IsAnamorphic":null},{"Codec":"subrip","CodecTag":null,"Language":"gre","ColorRange":null,"ColorSpace":null,"ColorTransfer":null,"ColorPrimaries":null,"DvVersionMajor":null,"DvVersionMinor":null,"DvProfile":null,"DvLevel":null,"RpuPresentFlag":null,"ElPresentFlag":null,"BlPresentFlag":null,"DvBlSignalCompatibilityId":null,"Comment":null,"TimeBase":"1/1000","CodecTimeBase":null,"Title":null,"VideoRange":null,"VideoRangeType":null,"VideoDoViTitle":null,"LocalizedUndefined":"Undefined","LocalizedDefault":"Default","LocalizedForced":"Forced","LocalizedExternal":"External","DisplayTitle":"Gre - SUBRIP","NalLengthSize":null,"IsInterlaced":false,"IsAVC":null,"ChannelLayout":null,"BitRate":null,"BitDepth":null,"RefFrames":null,"PacketLength":null,"Channels":null,"SampleRate":null,"IsDefault":false,"IsForced":false,"Height":null,"Width":null,"AverageFrameRate":null,"RealFrameRate":null,"Profile":null,"Type":2,"AspectRatio":null,"Index":7,"Score":null,"IsExternal":false,"DeliveryMethod":null,"DeliveryUrl":null,"IsExternalUrl":null,"IsTextSubtitleStream":true,"SupportsExternalStream":true,"Path":null,"PixelFormat":null,"Level":0,"IsAnamorphic":null},{"Codec":"subrip","CodecTag":null,"Language":"spa","ColorRange":null,"ColorSpace":null,"ColorTransfer":null,"ColorPrimaries":null,"DvVersionMajor":null,"DvVersionMinor":null,"DvProfile":null,"DvLevel":null,"RpuPresentFlag":null,"ElPresentFlag":null,"BlPresentFlag":null,"DvBlSignalCompatibilityId":null,"Comment":null,"TimeBase":"1/1000","CodecTimeBase":null,"Title":"Spanish (Latin America)","VideoRange":null,"VideoRangeType":null,"VideoDoViTitle":null,"LocalizedUndefined":"Undefined","LocalizedDefault":"Default","LocalizedForced":"Forced","LocalizedExternal":"External","DisplayTitle":"Spanish (Latin America) - SUBRIP","NalLengthSize":null,"IsInterlaced":false,"IsAVC":null,"ChannelLayout":null,"BitRate":null,"BitDepth":null,"RefFrames":null,"PacketLength":null,"Channels":null,"SampleRate":null,"IsDefault":false,"IsForced":false,"Height":null,"Width":null,"AverageFrameRate":null,"RealFrameRate":null,"Profile":null,"Type":2,"AspectRatio":null,"Index":8,"Score":null,"IsExternal":false,"DeliveryMethod":null,"DeliveryUrl":null,"IsExternalUrl":null,"IsTextSubtitleStream":true,"SupportsExternalStream":true,"Path":null,"PixelFormat":null,"Level":0,"IsAnamorphic":null},{"Codec":"subrip","CodecTag":null,"Language":"spa","ColorRange":null,"ColorSpace":null,"ColorTransfer":null,"ColorPrimaries":null,"DvVersionMajor":null,"DvVersionMinor":null,"DvProfile":null,"DvLevel":null,"RpuPresentFlag":null,"ElPresentFlag":null,"BlPresentFlag":null,"DvBlSignalCompatibilityId":null,"Comment":null,"TimeBase":"1/1000","CodecTimeBase":null,"Title":"Spanish (Spain)","VideoRange":null,"VideoRangeType":null,"VideoDoViTitle":null,"LocalizedUndefined":"Undefined","LocalizedDefault":"Default","LocalizedForced":"Forced","LocalizedExternal":"External","DisplayTitle":"Spanish (Spain) - SUBRIP","NalLengthSize":null,"IsInterlaced":false,"IsAVC":null,"ChannelLayout":null,"BitRate":null,"BitDepth":null,"RefFrames":null,"PacketLength":null,"Channels":null,"SampleRate":null,"IsDefault":false,"IsForced":false,"Height":null,"Width":null,"AverageFrameRate":null,"RealFrameRate":null,"Profile":null,"Type":2,"AspectRatio":null,"Index":9,"Score":null,"IsExternal":false,"DeliveryMethod":null,"DeliveryUrl":null,"IsExternalUrl":null,"IsTextSubtitleStream":true,"SupportsExternalStream":true,"Path":null,"PixelFormat":null,"Level":0,"IsAnamorphic":null},{"Codec":"subrip","CodecTag":null,"Language":"fin","ColorRange":null,"ColorSpace":null,"ColorTransfer":null,"ColorPrimaries":null,"DvVersionMajor":null,"DvVersionMinor":null,"DvProfile":null,"DvLevel":null,"RpuPresentFlag":null,"ElPresentFlag":null,"BlPresentFlag":null,"DvBlSignalCompatibilityId":null,"Comment":null,"TimeBase":"1/1000","CodecTimeBase":null,"Title":null,"VideoRange":null,"VideoRangeType":null,"VideoDoViTitle":null,"LocalizedUndefined":"Undefined","LocalizedDefault":"Default","LocalizedForced":"Forced","LocalizedExternal":"External","DisplayTitle":"Finnish - SUBRIP","NalLengthSize":null,"IsInterlaced":false,"IsAVC":null,"ChannelLayout":null,"BitRate":null,"BitDepth":null,"RefFrames":null,"PacketLength":null,"Channels":null,"SampleRate":null,"IsDefault":false,"IsForced":false,"Height":null,"Width":null,"AverageFrameRate":null,"RealFrameRate":null,"Profile":null,"Type":2,"AspectRatio":null,"Index":10,"Score":null,"IsExternal":false,"DeliveryMethod":null,"DeliveryUrl":null,"IsExternalUrl":null,"IsTextSubtitleStream":true,"SupportsExternalStream":true,"Path":null,"PixelFormat":null,"Level":0,"IsAnamorphic":null},{"Codec":"subrip","CodecTag":null,"Language":"fre","ColorRange":null,"ColorSpace":null,"ColorTransfer":null,"ColorPrimaries":null,"DvVersionMajor":null,"DvVersionMinor":null,"DvProfile":null,"DvLevel":null,"RpuPresentFlag":null,"ElPresentFlag":null,"BlPresentFlag":null,"DvBlSignalCompatibilityId":null,"Comment":null,"TimeBase":"1/1000","CodecTimeBase":null,"Title":"French (Canada)","VideoRange":null,"VideoRangeType":null,"VideoDoViTitle":null,"LocalizedUndefined":"Undefined","LocalizedDefault":"Default","LocalizedForced":"Forced","LocalizedExternal":"External","DisplayTitle":"French (Canada) - SUBRIP","NalLengthSize":null,"IsInterlaced":false,"IsAVC":null,"ChannelLayout":null,"BitRate":null,"BitDepth":null,"RefFrames":null,"PacketLength":null,"Channels":null,"SampleRate":null,"IsDefault":false,"IsForced":false,"Height":null,"Width":null,"AverageFrameRate":null,"RealFrameRate":null,"Profile":null,"Type":2,"AspectRatio":null,"Index":11,"Score":null,"IsExternal":false,"DeliveryMethod":null,"DeliveryUrl":null,"IsExternalUrl":null,"IsTextSubtitleStream":true,"SupportsExternalStream":true,"Path":null,"PixelFormat":null,"Level":0,"IsAnamorphic":null},{"Codec":"subrip","CodecTag":null,"Language":"fre","ColorRange":null,"ColorSpace":null,"ColorTransfer":null,"ColorPrimaries":null,"DvVersionMajor":null,"DvVersionMinor":null,"DvProfile":null,"DvLevel":null,"RpuPresentFlag":null,"ElPresentFlag":null,"BlPresentFlag":null,"DvBlSignalCompatibilityId":null,"Comment":null,"TimeBase":"1/1000","CodecTimeBase":null,"Title":"French (France)","VideoRange":null,"VideoRangeType":null,"VideoDoViTitle":null,"LocalizedUndefined":"Undefined","LocalizedDefault":"Default","LocalizedForced":"Forced","LocalizedExternal":"External","DisplayTitle":"French (France) - SUBRIP","NalLengthSize":null,"IsInterlaced":false,"IsAVC":null,"ChannelLayout":null,"BitRate":null,"BitDepth":null,"RefFrames":null,"PacketLength":null,"Channels":null,"SampleRate":null,"IsDefault":false,"IsForced":false,"Height":null,"Width":null,"AverageFrameRate":null,"RealFrameRate":null,"Profile":null,"Type":2,"AspectRatio":null,"Index":12,"Score":null,"IsExternal":false,"DeliveryMethod":null,"DeliveryUrl":null,"IsExternalUrl":null,"IsTextSubtitleStream":true,"SupportsExternalStream":true,"Path":null,"PixelFormat":null,"Level":0,"IsAnamorphic":null},{"Codec":"subrip","CodecTag":null,"Language":"hun","ColorRange":null,"ColorSpace":null,"ColorTransfer":null,"ColorPrimaries":null,"DvVersionMajor":null,"DvVersionMinor":null,"DvProfile":null,"DvLevel":null,"RpuPresentFlag":null,"ElPresentFlag":null,"BlPresentFlag":null,"DvBlSignalCompatibilityId":null,"Comment":null,"TimeBase":"1/1000","CodecTimeBase":null,"Title":null,"VideoRange":null,"VideoRangeType":null,"VideoDoViTitle":null,"LocalizedUndefined":"Undefined","LocalizedDefault":"Default","LocalizedForced":"Forced","LocalizedExternal":"External","DisplayTitle":"Hungarian - SUBRIP","NalLengthSize":null,"IsInterlaced":false,"IsAVC":null,"ChannelLayout":null,"BitRate":null,"BitDepth":null,"RefFrames":null,"PacketLength":null,"Channels":null,"SampleRate":null,"IsDefault":false,"IsForced":false,"Height":null,"Width":null,"AverageFrameRate":null,"RealFrameRate":null,"Profile":null,"Type":2,"AspectRatio":null,"Index":13,"Score":null,"IsExternal":false,"DeliveryMethod":null,"DeliveryUrl":null,"IsExternalUrl":null,"IsTextSubtitleStream":true,"SupportsExternalStream":true,"Path":null,"PixelFormat":null,"Level":0,"IsAnamorphic":null},{"Codec":"subrip","CodecTag":null,"Language":"ita","ColorRange":null,"ColorSpace":null,"ColorTransfer":null,"ColorPrimaries":null,"DvVersionMajor":null,"DvVersionMinor":null,"DvProfile":null,"DvLevel":null,"RpuPresentFlag":null,"ElPresentFlag":null,"BlPresentFlag":null,"DvBlSignalCompatibilityId":null,"Comment":null,"TimeBase":"1/1000","CodecTimeBase":null,"Title":null,"VideoRange":null,"VideoRangeType":null,"VideoDoViTitle":null,"LocalizedUndefined":"Undefined","LocalizedDefault":"Default","LocalizedForced":"Forced","LocalizedExternal":"External","DisplayTitle":"Italian - SUBRIP","NalLengthSize":null,"IsInterlaced":false,"IsAVC":null,"ChannelLayout":null,"BitRate":null,"BitDepth":null,"RefFrames":null,"PacketLength":null,"Channels":null,"SampleRate":null,"IsDefault":false,"IsForced":false,"Height":null,"Width":null,"AverageFrameRate":null,"RealFrameRate":null,"Profile":null,"Type":2,"AspectRatio":null,"Index":14,"Score":null,"IsExternal":false,"DeliveryMethod":null,"DeliveryUrl":null,"IsExternalUrl":null,"IsTextSubtitleStream":true,"SupportsExternalStream":true,"Path":null,"PixelFormat":null,"Level":0,"IsAnamorphic":null},{"Codec":"subrip","CodecTag":null,"Language":"jpn","ColorRange":null,"ColorSpace":null,"ColorTransfer":null,"ColorPrimaries":null,"DvVersionMajor":null,"DvVersionMinor":null,"DvProfile":null,"DvLevel":null,"RpuPresentFlag":null,"ElPresentFlag":null,"BlPresentFlag":null,"DvBlSignalCompatibilityId":null,"Comment":null,"TimeBase":"1/1000","CodecTimeBase":null,"Title":null,"VideoRange":null,"VideoRangeType":null,"VideoDoViTitle":null,"LocalizedUndefined":"Undefined","LocalizedDefault":"Default","LocalizedForced":"Forced","LocalizedExternal":"External","DisplayTitle":"Japanese - SUBRIP","NalLengthSize":null,"IsInterlaced":false,"IsAVC":null,"ChannelLayout":null,"BitRate":null,"BitDepth":null,"RefFrames":null,"PacketLength":null,"Channels":null,"SampleRate":null,"IsDefault":false,"IsForced":false,"Height":null,"Width":null,"AverageFrameRate":null,"RealFrameRate":null,"Profile":null,"Type":2,"AspectRatio":null,"Index":15,"Score":null,"IsExternal":false,"DeliveryMethod":null,"DeliveryUrl":null,"IsExternalUrl":null,"IsTextSubtitleStream":true,"SupportsExternalStream":true,"Path":null,"PixelFormat":null,"Level":0,"IsAnamorphic":null},{"Codec":"subrip","CodecTag":null,"Language":"kor","ColorRange":null,"ColorSpace":null,"ColorTransfer":null,"ColorPrimaries":null,"DvVersionMajor":null,"DvVersionMinor":null,"DvProfile":null,"DvLevel":null,"RpuPresentFlag":null,"ElPresentFlag":null,"BlPresentFlag":null,"DvBlSignalCompatibilityId":null,"Comment":null,"TimeBase":"1/1000","CodecTimeBase":null,"Title":null,"VideoRange":null,"VideoRangeType":null,"VideoDoViTitle":null,"LocalizedUndefined":"Undefined","LocalizedDefault":"Default","LocalizedForced":"Forced","LocalizedExternal":"External","DisplayTitle":"Korean - SUBRIP","NalLengthSize":null,"IsInterlaced":false,"IsAVC":null,"ChannelLayout":null,"BitRate":null,"BitDepth":null,"RefFrames":null,"PacketLength":null,"Channels":null,"SampleRate":null,"IsDefault":false,"IsForced":false,"Height":null,"Width":null,"AverageFrameRate":null,"RealFrameRate":null,"Profile":null,"Type":2,"AspectRatio":null,"Index":16,"Score":null,"IsExternal":false,"DeliveryMethod":null,"DeliveryUrl":null,"IsExternalUrl":null,"IsTextSubtitleStream":true,"SupportsExternalStream":true,"Path":null,"PixelFormat":null,"Level":0,"IsAnamorphic":null},{"Codec":"subrip","CodecTag":null,"Language":"dut","ColorRange":null,"ColorSpace":null,"ColorTransfer":null,"ColorPrimaries":null,"DvVersionMajor":null,"DvVersionMinor":null,"DvProfile":null,"DvLevel":null,"RpuPresentFlag":null,"ElPresentFlag":null,"BlPresentFlag":null,"DvBlSignalCompatibilityId":null,"Comment":null,"TimeBase":"1/1000","CodecTimeBase":null,"Title":null,"VideoRange":null,"VideoRangeType":null,"VideoDoViTitle":null,"LocalizedUndefined":"Undefined","LocalizedDefault":"Default","LocalizedForced":"Forced","LocalizedExternal":"External","DisplayTitle":"Dut - SUBRIP","NalLengthSize":null,"IsInterlaced":false,"IsAVC":null,"ChannelLayout":null,"BitRate":null,"BitDepth":null,"RefFrames":null,"PacketLength":null,"Channels":null,"SampleRate":null,"IsDefault":false,"IsForced":false,"Height":null,"Width":null,"AverageFrameRate":null,"RealFrameRate":null,"Profile":null,"Type":2,"AspectRatio":null,"Index":17,"Score":null,"IsExternal":false,"DeliveryMethod":null,"DeliveryUrl":null,"IsExternalUrl":null,"IsTextSubtitleStream":true,"SupportsExternalStream":true,"Path":null,"PixelFormat":null,"Level":0,"IsAnamorphic":null},{"Codec":"subrip","CodecTag":null,"Language":"nor","ColorRange":null,"ColorSpace":null,"ColorTransfer":null,"ColorPrimaries":null,"DvVersionMajor":null,"DvVersionMinor":null,"DvProfile":null,"DvLevel":null,"RpuPresentFlag":null,"ElPresentFlag":null,"BlPresentFlag":null,"DvBlSignalCompatibilityId":null,"Comment":null,"TimeBase":"1/1000","CodecTimeBase":null,"Title":null,"VideoRange":null,"VideoRangeType":null,"VideoDoViTitle":null,"LocalizedUndefined":"Undefined","LocalizedDefault":"Default","LocalizedForced":"Forced","LocalizedExternal":"External","DisplayTitle":"Norwegian - SUBRIP","NalLengthSize":null,"IsInterlaced":false,"IsAVC":null,"ChannelLayout":null,"BitRate":null,"BitDepth":null,"RefFrames":null,"PacketLength":null,"Channels":null,"SampleRate":null,"IsDefault":false,"IsForced":false,"Height":null,"Width":null,"AverageFrameRate":null,"RealFrameRate":null,"Profile":null,"Type":2,"AspectRatio":null,"Index":18,"Score":null,"IsExternal":false,"DeliveryMethod":null,"DeliveryUrl":null,"IsExternalUrl":null,"IsTextSubtitleStream":true,"SupportsExternalStream":true,"Path":null,"PixelFormat":null,"Level":0,"IsAnamorphic":null},{"Codec":"subrip","CodecTag":null,"Language":"pol","ColorRange":null,"ColorSpace":null,"ColorTransfer":null,"ColorPrimaries":null,"DvVersionMajor":null,"DvVersionMinor":null,"DvProfile":null,"DvLevel":null,"RpuPresentFlag":null,"ElPresentFlag":null,"BlPresentFlag":null,"DvBlSignalCompatibilityId":null,"Comment":null,"TimeBase":"1/1000","CodecTimeBase":null,"Title":null,"VideoRange":null,"VideoRangeType":null,"VideoDoViTitle":null,"LocalizedUndefined":"Undefined","LocalizedDefault":"Default","LocalizedForced":"Forced","LocalizedExternal":"External","DisplayTitle":"Polish - SUBRIP","NalLengthSize":null,"IsInterlaced":false,"IsAVC":null,"ChannelLayout":null,"BitRate":null,"BitDepth":null,"RefFrames":null,"PacketLength":null,"Channels":null,"SampleRate":null,"IsDefault":false,"IsForced":false,"Height":null,"Width":null,"AverageFrameRate":null,"RealFrameRate":null,"Profile":null,"Type":2,"AspectRatio":null,"Index":19,"Score":null,"IsExternal":false,"DeliveryMethod":null,"DeliveryUrl":null,"IsExternalUrl":null,"IsTextSubtitleStream":true,"SupportsExternalStream":true,"Path":null,"PixelFormat":null,"Level":0,"IsAnamorphic":null},{"Codec":"subrip","CodecTag":null,"Language":"por","ColorRange":null,"ColorSpace":null,"ColorTransfer":null,"ColorPrimaries":null,"DvVersionMajor":null,"DvVersionMinor":null,"DvProfile":null,"DvLevel":null,"RpuPresentFlag":null,"ElPresentFlag":null,"BlPresentFlag":null,"DvBlSignalCompatibilityId":null,"Comment":null,"TimeBase":"1/1000","CodecTimeBase":null,"Title":"Portuguese (Brazil)","VideoRange":null,"VideoRangeType":null,"VideoDoViTitle":null,"LocalizedUndefined":"Undefined","LocalizedDefault":"Default","LocalizedForced":"Forced","LocalizedExternal":"External","DisplayTitle":"Portuguese (Brazil) - SUBRIP","NalLengthSize":null,"IsInterlaced":false,"IsAVC":null,"ChannelLayout":null,"BitRate":null,"BitDepth":null,"RefFrames":null,"PacketLength":null,"Channels":null,"SampleRate":null,"IsDefault":false,"IsForced":false,"Height":null,"Width":null,"AverageFrameRate":null,"RealFrameRate":null,"Profile":null,"Type":2,"AspectRatio":null,"Index":20,"Score":null,"IsExternal":false,"DeliveryMethod":null,"DeliveryUrl":null,"IsExternalUrl":null,"IsTextSubtitleStream":true,"SupportsExternalStream":true,"Path":null,"PixelFormat":null,"Level":0,"IsAnamorphic":null},{"Codec":"subrip","CodecTag":null,"Language":"por","ColorRange":null,"ColorSpace":null,"ColorTransfer":null,"ColorPrimaries":null,"DvVersionMajor":null,"DvVersionMinor":null,"DvProfile":null,"DvLevel":null,"RpuPresentFlag":null,"ElPresentFlag":null,"BlPresentFlag":null,"DvBlSignalCompatibilityId":null,"Comment":null,"TimeBase":"1/1000","CodecTimeBase":null,"Title":"Portuguese (Portugal)","VideoRange":null,"VideoRangeType":null,"VideoDoViTitle":null,"LocalizedUndefined":"Undefined","LocalizedDefault":"Default","LocalizedForced":"Forced","LocalizedExternal":"External","DisplayTitle":"Portuguese (Portugal) - SUBRIP","NalLengthSize":null,"IsInterlaced":false,"IsAVC":null,"ChannelLayout":null,"BitRate":null,"BitDepth":null,"RefFrames":null,"PacketLength":null,"Channels":null,"SampleRate":null,"IsDefault":false,"IsForced":false,"Height":null,"Width":null,"AverageFrameRate":null,"RealFrameRate":null,"Profile":null,"Type":2,"AspectRatio":null,"Index":21,"Score":null,"IsExternal":false,"DeliveryMethod":null,"DeliveryUrl":null,"IsExternalUrl":null,"IsTextSubtitleStream":true,"SupportsExternalStream":true,"Path":null,"PixelFormat":null,"Level":0,"IsAnamorphic":null},{"Codec":"subrip","CodecTag":null,"Language":"rum","ColorRange":null,"ColorSpace":null,"ColorTransfer":null,"ColorPrimaries":null,"DvVersionMajor":null,"DvVersionMinor":null,"DvProfile":null,"DvLevel":null,"RpuPresentFlag":null,"ElPresentFlag":null,"BlPresentFlag":null,"DvBlSignalCompatibilityId":null,"Comment":null,"TimeBase":"1/1000","CodecTimeBase":null,"Title":null,"VideoRange":null,"VideoRangeType":null,"VideoDoViTitle":null,"LocalizedUndefined":"Undefined","LocalizedDefault":"Default","LocalizedForced":"Forced","LocalizedExternal":"External","DisplayTitle":"Rum - SUBRIP","NalLengthSize":null,"IsInterlaced":false,"IsAVC":null,"ChannelLayout":null,"BitRate":null,"BitDepth":null,"RefFrames":null,"PacketLength":null,"Channels":null,"SampleRate":null,"IsDefault":false,"IsForced":false,"Height":null,"Width":null,"AverageFrameRate":null,"RealFrameRate":null,"Profile":null,"Type":2,"AspectRatio":null,"Index":22,"Score":null,"IsExternal":false,"DeliveryMethod":null,"DeliveryUrl":null,"IsExternalUrl":null,"IsTextSubtitleStream":true,"SupportsExternalStream":true,"Path":null,"PixelFormat":null,"Level":0,"IsAnamorphic":null},{"Codec":"subrip","CodecTag":null,"Language":"slo","ColorRange":null,"ColorSpace":null,"ColorTransfer":null,"ColorPrimaries":null,"DvVersionMajor":null,"DvVersionMinor":null,"DvProfile":null,"DvLevel":null,"RpuPresentFlag":null,"ElPresentFlag":null,"BlPresentFlag":null,"DvBlSignalCompatibilityId":null,"Comment":null,"TimeBase":"1/1000","CodecTimeBase":null,"Title":null,"VideoRange":null,"VideoRangeType":null,"VideoDoViTitle":null,"LocalizedUndefined":"Undefined","LocalizedDefault":"Default","LocalizedForced":"Forced","LocalizedExternal":"External","DisplayTitle":"Slo - SUBRIP","NalLengthSize":null,"IsInterlaced":false,"IsAVC":null,"ChannelLayout":null,"BitRate":null,"BitDepth":null,"RefFrames":null,"PacketLength":null,"Channels":null,"SampleRate":null,"IsDefault":false,"IsForced":false,"Height":null,"Width":null,"AverageFrameRate":null,"RealFrameRate":null,"Profile":null,"Type":2,"AspectRatio":null,"Index":23,"Score":null,"IsExternal":false,"DeliveryMethod":null,"DeliveryUrl":null,"IsExternalUrl":null,"IsTextSubtitleStream":true,"SupportsExternalStream":true,"Path":null,"PixelFormat":null,"Level":0,"IsAnamorphic":null},{"Codec":"subrip","CodecTag":null,"Language":"swe","ColorRange":null,"ColorSpace":null,"ColorTransfer":null,"ColorPrimaries":null,"DvVersionMajor":null,"DvVersionMinor":null,"DvProfile":null,"DvLevel":null,"RpuPresentFlag":null,"ElPresentFlag":null,"BlPresentFlag":null,"DvBlSignalCompatibilityId":null,"Comment":null,"TimeBase":"1/1000","CodecTimeBase":null,"Title":null,"VideoRange":null,"VideoRangeType":null,"VideoDoViTitle":null,"LocalizedUndefined":"Undefined","LocalizedDefault":"Default","LocalizedForced":"Forced","LocalizedExternal":"External","DisplayTitle":"Swedish - SUBRIP","NalLengthSize":null,"IsInterlaced":false,"IsAVC":null,"ChannelLayout":null,"BitRate":null,"BitDepth":null,"RefFrames":null,"PacketLength":null,"Channels":null,"SampleRate":null,"IsDefault":false,"IsForced":false,"Height":null,"Width":null,"AverageFrameRate":null,"RealFrameRate":null,"Profile":null,"Type":2,"AspectRatio":null,"Index":24,"Score":null,"IsExternal":false,"DeliveryMethod":null,"DeliveryUrl":null,"IsExternalUrl":null,"IsTextSubtitleStream":true,"SupportsExternalStream":true,"Path":null,"PixelFormat":null,"Level":0,"IsAnamorphic":null},{"Codec":"subrip","CodecTag":null,"Language":"tur","ColorRange":null,"ColorSpace":null,"ColorTransfer":null,"ColorPrimaries":null,"DvVersionMajor":null,"DvVersionMinor":null,"DvProfile":null,"DvLevel":null,"RpuPresentFlag":null,"ElPresentFlag":null,"BlPresentFlag":null,"DvBlSignalCompatibilityId":null,"Comment":null,"TimeBase":"1/1000","CodecTimeBase":null,"Title":null,"VideoRange":null,"VideoRangeType":null,"VideoDoViTitle":null,"LocalizedUndefined":"Undefined","LocalizedDefault":"Default","LocalizedForced":"Forced","LocalizedExternal":"External","DisplayTitle":"Turkish - SUBRIP","NalLengthSize":null,"IsInterlaced":false,"IsAVC":null,"ChannelLayout":null,"BitRate":null,"BitDepth":null,"RefFrames":null,"PacketLength":null,"Channels":null,"SampleRate":null,"IsDefault":false,"IsForced":false,"Height":null,"Width":null,"AverageFrameRate":null,"RealFrameRate":null,"Profile":null,"Type":2,"AspectRatio":null,"Index":25,"Score":null,"IsExternal":false,"DeliveryMethod":null,"DeliveryUrl":null,"IsExternalUrl":null,"IsTextSubtitleStream":true,"SupportsExternalStream":true,"Path":null,"PixelFormat":null,"Level":0,"IsAnamorphic":null},{"Codec":"subrip","CodecTag":null,"Language":"chi","ColorRange":null,"ColorSpace":null,"ColorTransfer":null,"ColorPrimaries":null,"DvVersionMajor":null,"DvVersionMinor":null,"DvProfile":null,"DvLevel":null,"RpuPresentFlag":null,"ElPresentFlag":null,"BlPresentFlag":null,"DvBlSignalCompatibilityId":null,"Comment":null,"TimeBase":"1/1000","CodecTimeBase":null,"Title":"Chinese (Hong Kong SAR China)","VideoRange":null,"VideoRangeType":null,"VideoDoViTitle":null,"LocalizedUndefined":"Undefined","LocalizedDefault":"Default","LocalizedForced":"Forced","LocalizedExternal":"External","DisplayTitle":"Chinese (Hong Kong SAR China) - SUBRIP","NalLengthSize":null,"IsInterlaced":false,"IsAVC":null,"ChannelLayout":null,"BitRate":null,"BitDepth":null,"RefFrames":null,"PacketLength":null,"Channels":null,"SampleRate":null,"IsDefault":false,"IsForced":false,"Height":null,"Width":null,"AverageFrameRate":null,"RealFrameRate":null,"Profile":null,"Type":2,"AspectRatio":null,"Index":26,"Score":null,"IsExternal":false,"DeliveryMethod":null,"DeliveryUrl":null,"IsExternalUrl":null,"IsTextSubtitleStream":true,"SupportsExternalStream":true,"Path":null,"PixelFormat":null,"Level":0,"IsAnamorphic":null},{"Codec":"subrip","CodecTag":null,"Language":"chi","ColorRange":null,"ColorSpace":null,"ColorTransfer":null,"ColorPrimaries":null,"DvVersionMajor":null,"DvVersionMinor":null,"DvProfile":null,"DvLevel":null,"RpuPresentFlag":null,"ElPresentFlag":null,"BlPresentFlag":null,"DvBlSignalCompatibilityId":null,"Comment":null,"TimeBase":"1/1000","CodecTimeBase":null,"Title":"Chinese (Traditional)","VideoRange":null,"VideoRangeType":null,"VideoDoViTitle":null,"LocalizedUndefined":"Undefined","LocalizedDefault":"Default","LocalizedForced":"Forced","LocalizedExternal":"External","DisplayTitle":"Chinese (Traditional) - SUBRIP","NalLengthSize":null,"IsInterlaced":false,"IsAVC":null,"ChannelLayout":null,"BitRate":null,"BitDepth":null,"RefFrames":null,"PacketLength":null,"Channels":null,"SampleRate":null,"IsDefault":false,"IsForced":false,"Height":null,"Width":null,"AverageFrameRate":null,"RealFrameRate":null,"Profile":null,"Type":2,"AspectRatio":null,"Index":27,"Score":null,"IsExternal":false,"DeliveryMethod":null,"DeliveryUrl":null,"IsExternalUrl":null,"IsTextSubtitleStream":true,"SupportsExternalStream":true,"Path":null,"PixelFormat":null,"Level":0,"IsAnamorphic":null}],"MediaAttachments":[],"Formats":[],"Bitrate":14702766,"Timestamp":null,"RequiredHttpHeaders":{},"TranscodingUrl":null,"TranscodingSubProtocol":null,"TranscodingContainer":null,"AnalyzeDurationMs":null,"DefaultAudioStreamIndex":null,"DefaultSubtitleStreamIndex":null}

/usr/lib/jellyfin-ffmpeg/ffmpeg -analyzeduration 200M -ss 00:10:13.000 -noaccurate_seek -fflags +genpts -f matroska,webm  -i file:"/data/tvshows/Secret Invasion/Season 1/Secret Invasion - S01E02 - Promises WEBDL-2160p.mkv" -map_metadata -1 -map_chapters -1 -threads 0 -map 0:0 -map 0:1 -map -0:s -codec:v:0 copy -tag:v:0 hvc1 -bsf:v hevc_mp4toannexb -start_at_zero -codec:a:0 copy -copyts -avoid_negative_ts disabled -max_muxing_queue_size 2048 -f hls -max_delay 5000000 -hls_time 6 -hls_segment_type fmp4 -hls_fmp4_init_filename "40b12f9787f41814ec159312dc8951d3-1.mp4" -start_number 102 -hls_segment_filename "/data/transcodes/40b12f9787f41814ec159312dc8951d3%d.mp4" -hls_playlist_type vod -hls_list_size 0 -y "/data/transcodes/40b12f9787f41814ec159312dc8951d3.m3u8"


ffmpeg version 5.1.3-Jellyfin Copyright (c) 2000-2022 the FFmpeg developers
  built with gcc 11 (Ubuntu 11.3.0-1ubuntu1~22.04.1)
  configuration: --prefix=/usr/lib/jellyfin-ffmpeg --target-os=linux --extra-libs=-lfftw3f --extra-version=Jellyfin --disable-doc --disable-ffplay --disable-ptx-compression --disable-static --disable-libxcb --disable-sdl2 --disable-xlib --enable-lto --enable-gpl --enable-version3 --enable-shared --enable-gmp --enable-gnutls --enable-chromaprint --enable-libdrm --enable-libass --enable-libfreetype --enable-libfribidi --enable-libfontconfig --enable-libbluray --enable-libmp3lame --enable-libopus --enable-libtheora --enable-libvorbis --enable-libopenmpt --enable-libdav1d --enable-libwebp --enable-libvpx --enable-libx264 --enable-libx265 --enable-libzvbi --enable-libzimg --enable-libfdk-aac --arch=amd64 --enable-libsvtav1 --enable-libshaderc --enable-libplacebo --enable-vulkan --enable-opencl --enable-vaapi --enable-amf --enable-libmfx --enable-ffnvcodec --enable-cuda --enable-cuda-llvm --enable-cuvid --enable-nvdec --enable-nvenc
  libavutil      57. 28.100 / 57. 28.100
  libavcodec     59. 37.100 / 59. 37.100
  libavformat    59. 27.100 / 59. 27.100
  libavdevice    59.  7.100 / 59.  7.100
  libavfilter     8. 44.100 /  8. 44.100
  libswscale      6.  7.100 /  6.  7.100
  libswresample   4.  7.100 /  4.  7.100
  libpostproc    56.  6.100 / 56.  6.100
Input #0, matroska,webm, from 'file:/data/tvshows/Secret Invasion/Season 1/Secret Invasion - S01E02 - Promises WEBDL-2160p.mkv':
  Metadata:
    encoder         : libebml v1.4.4 + libmatroska v1.7.1
  Duration: 00:55:35.01, start: 0.000000, bitrate: 13934 kb/s
  Chapters:
    Chapter #0:0: start 0.000000, end 414.622000
      Metadata:
        title           : Chapter 1
    Chapter #0:1: start 414.622000, end 518.289000
      Metadata:
        title           : Intro
    Chapter #0:2: start 518.289000, end 538.247000
      Metadata:
        title           : Chapter 2
    Chapter #0:3: start 538.247000, end 1067.830000
      Metadata:
        title           : Chapter 3
    Chapter #0:4: start 1067.830000, end 1584.205000
      Metadata:
        title           : Chapter 4
    Chapter #0:5: start 1584.205000, end 2346.789000
      Metadata:
        title           : Chapter 5
    Chapter #0:6: start 2346.789000, end 3178.955000
      Metadata:
        title           : Chapter 6
    Chapter #0:7: start 3178.955000, end 3335.008000
      Metadata:
        title           : Credits
  Stream #0:0: Video: hevc (Main), yuv420p(tv, bt709), 3840x2160 [SAR 1:1 DAR 16:9], 24 fps, 24 tbr, 1k tbn (default)
    Metadata:
      BPS             : 13162066
      DURATION        : 00:55:35.000000000
      NUMBER_OF_FRAMES: 80040
      NUMBER_OF_BYTES : 5486936650
      _STATISTICS_WRITING_APP: mkvmerge v76.0 ('Celebration') 64-bit
      _STATISTICS_TAGS: BPS DURATION NUMBER_OF_FRAMES NUMBER_OF_BYTES
  Stream #0:1(eng): Audio: eac3, 48000 Hz, 5.1(side), fltp, 768 kb/s (default)
    Metadata:
      BPS             : 768000
      DURATION        : 00:55:35.008000000
      NUMBER_OF_FRAMES: 104219
      NUMBER_OF_BYTES : 320160768
      _STATISTICS_WRITING_APP: mkvmerge v76.0 ('Celebration') 64-bit
      _STATISTICS_TAGS: BPS DURATION NUMBER_OF_FRAMES NUMBER_OF_BYTES
  Stream #0:2(eng): Subtitle: subrip
    Metadata:
      BPS             : 52
      DURATION        : 00:53:42.334000000
      NUMBER_OF_FRAMES: 550
      NUMBER_OF_BYTES : 21155
      _STATISTICS_WRITING_APP: mkvmerge v76.0 ('Celebration') 64-bit
      _STATISTICS_TAGS: BPS DURATION NUMBER_OF_FRAMES NUMBER_OF_BYTES
  Stream #0:3(eng): Subtitle: subrip (hearing impaired)
    Metadata:
      title           : SDH
      BPS             : 56
      DURATION        : 00:53:42.334000000
      NUMBER_OF_FRAMES: 635
      NUMBER_OF_BYTES : 22886
      _STATISTICS_WRITING_APP: mkvmerge v76.0 ('Celebration') 64-bit
      _STATISTICS_TAGS: BPS DURATION NUMBER_OF_FRAMES NUMBER_OF_BYTES
  Stream #0:4(cze): Subtitle: subrip
    Metadata:
      BPS             : 45
      DURATION        : 00:55:24.417000000
      NUMBER_OF_FRAMES: 559
      NUMBER_OF_BYTES : 18949
      _STATISTICS_WRITING_APP: mkvmerge v76.0 ('Celebration') 64-bit
      _STATISTICS_TAGS: BPS DURATION NUMBER_OF_FRAMES NUMBER_OF_BYTES
  Stream #0:5(dan): Subtitle: subrip
    Metadata:
      BPS             : 45
      DURATION        : 00:55:24.542000000
      NUMBER_OF_FRAMES: 434
      NUMBER_OF_BYTES : 18708
      _STATISTICS_WRITING_APP: mkvmerge v76.0 ('Celebration') 64-bit
      _STATISTICS_TAGS: BPS DURATION NUMBER_OF_FRAMES NUMBER_OF_BYTES
  Stream #0:6(ger): Subtitle: subrip
    Metadata:
      BPS             : 49
      DURATION        : 00:55:24.459000000
      NUMBER_OF_FRAMES: 566
      NUMBER_OF_BYTES : 20383
      _STATISTICS_WRITING_APP: mkvmerge v76.0 ('Celebration') 64-bit
      _STATISTICS_TAGS: BPS DURATION NUMBER_OF_FRAMES NUMBER_OF_BYTES
  Stream #0:7(gre): Subtitle: subrip
    Metadata:
      BPS             : 90
      DURATION        : 00:55:24.459000000
      NUMBER_OF_FRAMES: 570
      NUMBER_OF_BYTES : 37494
      _STATISTICS_WRITING_APP: mkvmerge v76.0 ('Celebration') 64-bit
      _STATISTICS_TAGS: BPS DURATION NUMBER_OF_FRAMES NUMBER_OF_BYTES
  Stream #0:8(spa): Subtitle: subrip
    Metadata:
      title           : Spanish (Latin America)
      BPS             : 49
      DURATION        : 00:55:24.459000000
      NUMBER_OF_FRAMES: 567
      NUMBER_OF_BYTES : 20759
      _STATISTICS_WRITING_APP: mkvmerge v76.0 ('Celebration') 64-bit
      _STATISTICS_TAGS: BPS DURATION NUMBER_OF_FRAMES NUMBER_OF_BYTES
  Stream #0:9(spa): Subtitle: subrip
    Metadata:
      title           : Spanish (Spain)
      BPS             : 49
      DURATION        : 00:55:24.459000000
      NUMBER_OF_FRAMES: 564
      NUMBER_OF_BYTES : 20551
      _STATISTICS_WRITING_APP: mkvmerge v76.0 ('Celebration') 64-bit
      _STATISTICS_TAGS: BPS DURATION NUMBER_OF_FRAMES NUMBER_OF_BYTES
  Stream #0:10(fin): Subtitle: subrip
    Metadata:
      BPS             : 48
      DURATION        : 00:55:24.459000000
      NUMBER_OF_FRAMES: 557
      NUMBER_OF_BYTES : 20237
      _STATISTICS_WRITING_APP: mkvmerge v76.0 ('Celebration') 64-bit
      _STATISTICS_TAGS: BPS DURATION NUMBER_OF_FRAMES NUMBER_OF_BYTES
  Stream #0:11(fre): Subtitle: subrip
    Metadata:
      title           : French (Canada)
      BPS             : 48
      DURATION        : 00:55:24.584000000
      NUMBER_OF_FRAMES: 600
      NUMBER_OF_BYTES : 20152
      _STATISTICS_WRITING_APP: mkvmerge v76.0 ('Celebration') 64-bit
      _STATISTICS_TAGS: BPS DURATION NUMBER_OF_FRAMES NUMBER_OF_BYTES
  Stream #0:12(fre): Subtitle: subrip
    Metadata:
      title           : French (France)
      BPS             : 48
      DURATION        : 00:55:24.584000000
      NUMBER_OF_FRAMES: 598
      NUMBER_OF_BYTES : 20145
      _STATISTICS_WRITING_APP: mkvmerge v76.0 ('Celebration') 64-bit
      _STATISTICS_TAGS: BPS DURATION NUMBER_OF_FRAMES NUMBER_OF_BYTES
  Stream #0:13(hun): Subtitle: subrip
    Metadata:
      BPS             : 49
      DURATION        : 00:55:24.459000000
      NUMBER_OF_FRAMES: 562
      NUMBER_OF_BYTES : 20519
      _STATISTICS_WRITING_APP: mkvmerge v76.0 ('Celebration') 64-bit
      _STATISTICS_TAGS: BPS DURATION NUMBER_OF_FRAMES NUMBER_OF_BYTES
  Stream #0:14(ita): Subtitle: subrip
    Metadata:
      BPS             : 49
      DURATION        : 00:55:24.459000000
      NUMBER_OF_FRAMES: 565
      NUMBER_OF_BYTES : 20714
      _STATISTICS_WRITING_APP: mkvmerge v76.0 ('Celebration') 64-bit
      _STATISTICS_TAGS: BPS DURATION NUMBER_OF_FRAMES NUMBER_OF_BYTES
  Stream #0:15(jpn): Subtitle: subrip
    Metadata:
      BPS             : 44
      DURATION        : 00:55:27.333000000
      NUMBER_OF_FRAMES: 523
      NUMBER_OF_BYTES : 18658
      _STATISTICS_WRITING_APP: mkvmerge v76.0 ('Celebration') 64-bit
      _STATISTICS_TAGS: BPS DURATION NUMBER_OF_FRAMES NUMBER_OF_BYTES
  Stream #0:16(kor): Subtitle: subrip
    Metadata:
      BPS             : 50
      DURATION        : 00:55:27.459000000
      NUMBER_OF_FRAMES: 570
      NUMBER_OF_BYTES : 20903
      _STATISTICS_WRITING_APP: mkvmerge v76.0 ('Celebration') 64-bit
      _STATISTICS_TAGS: BPS DURATION NUMBER_OF_FRAMES NUMBER_OF_BYTES
  Stream #0:17(dut): Subtitle: subrip
    Metadata:
      BPS             : 48
      DURATION        : 00:55:24.459000000
      NUMBER_OF_FRAMES: 534
      NUMBER_OF_BYTES : 20090
      _STATISTICS_WRITING_APP: mkvmerge v76.0 ('Celebration') 64-bit
      _STATISTICS_TAGS: BPS DURATION NUMBER_OF_FRAMES NUMBER_OF_BYTES
  Stream #0:18(nor): Subtitle: subrip
    Metadata:
      BPS             : 45
      DURATION        : 00:55:24.459000000
      NUMBER_OF_FRAMES: 563
      NUMBER_OF_BYTES : 19059
      _STATISTICS_WRITING_APP: mkvmerge v76.0 ('Celebration') 64-bit
      _STATISTICS_TAGS: BPS DURATION NUMBER_OF_FRAMES NUMBER_OF_BYTES
  Stream #0:19(pol): Subtitle: subrip
    Metadata:
      BPS             : 45
      DURATION        : 00:55:27.459000000
      NUMBER_OF_FRAMES: 560
      NUMBER_OF_BYTES : 18787
      _STATISTICS_WRITING_APP: mkvmerge v76.0 ('Celebration') 64-bit
      _STATISTICS_TAGS: BPS DURATION NUMBER_OF_FRAMES NUMBER_OF_BYTES
  Stream #0:20(por): Subtitle: subrip
    Metadata:
      title           : Portuguese (Brazil)
      BPS             : 53
      DURATION        : 00:55:24.459000000
      NUMBER_OF_FRAMES: 567
      NUMBER_OF_BYTES : 22277
      _STATISTICS_WRITING_APP: mkvmerge v76.0 ('Celebration') 64-bit
      _STATISTICS_TAGS: BPS DURATION NUMBER_OF_FRAMES NUMBER_OF_BYTES
  Stream #0:21(por): Subtitle: subrip
    Metadata:
      title           : Portuguese (Portugal)
      BPS             : 51
      DURATION        : 00:55:24.459000000
      NUMBER_OF_FRAMES: 567
      NUMBER_OF_BYTES : 21585
      _STATISTICS_WRITING_APP: mkvmerge v76.0 ('Celebration') 64-bit
      _STATISTICS_TAGS: BPS DURATION NUMBER_OF_FRAMES NUMBER_OF_BYTES
  Stream #0:22(rum): Subtitle: subrip
    Metadata:
      BPS             : 50
      DURATION        : 00:55:32.459000000
      NUMBER_OF_FRAMES: 567
      NUMBER_OF_BYTES : 21144
      _STATISTICS_WRITING_APP: mkvmerge v76.0 ('Celebration') 64-bit
      _STATISTICS_TAGS: BPS DURATION NUMBER_OF_FRAMES NUMBER_OF_BYTES
  Stream #0:23(slo): Subtitle: subrip
    Metadata:
      BPS             : 47
      DURATION        : 00:55:24.417000000
      NUMBER_OF_FRAMES: 563
      NUMBER_OF_BYTES : 19731
      _STATISTICS_WRITING_APP: mkvmerge v76.0 ('Celebration') 64-bit
      _STATISTICS_TAGS: BPS DURATION NUMBER_OF_FRAMES NUMBER_OF_BYTES
  Stream #0:24(swe): Subtitle: subrip
    Metadata:
      BPS             : 45
      DURATION        : 00:55:24.459000000
      NUMBER_OF_FRAMES: 458
      NUMBER_OF_BYTES : 18814
      _STATISTICS_WRITING_APP: mkvmerge v76.0 ('Celebration') 64-bit
      _STATISTICS_TAGS: BPS DURATION NUMBER_OF_FRAMES NUMBER_OF_BYTES
  Stream #0:25(tur): Subtitle: subrip
    Metadata:
      BPS             : 50
      DURATION        : 00:55:24.459000000
      NUMBER_OF_FRAMES: 565
      NUMBER_OF_BYTES : 21022
      _STATISTICS_WRITING_APP: mkvmerge v76.0 ('Celebration') 64-bit
      _STATISTICS_TAGS: BPS DURATION NUMBER_OF_FRAMES NUMBER_OF_BYTES
  Stream #0:26(chi): Subtitle: subrip
    Metadata:
      title           : Chinese (Hong Kong SAR China)
      BPS             : 38
      DURATION        : 00:55:27.459000000
      NUMBER_OF_FRAMES: 569
      NUMBER_OF_BYTES : 15890
      _STATISTICS_WRITING_APP: mkvmerge v76.0 ('Celebration') 64-bit
      _STATISTICS_TAGS: BPS DURATION NUMBER_OF_FRAMES NUMBER_OF_BYTES
  Stream #0:27(chi): Subtitle: subrip
    Metadata:
      title           : Chinese (Traditional)
      BPS             : 36
      DURATION        : 00:55:27.459000000
      NUMBER_OF_FRAMES: 572
      NUMBER_OF_BYTES : 15245
      _STATISTICS_WRITING_APP: mkvmerge v76.0 ('Celebration') 64-bit
      _STATISTICS_TAGS: BPS DURATION NUMBER_OF_FRAMES NUMBER_OF_BYTES
[hls @ 0x5627ae826c80] Opening '/data/transcodes/40b12f9787f41814ec159312dc8951d3-1.mp4' for writing
[mp4 @ 0x5627ae8b1c00] track 1: codec frame size is not set
Output #0, hls, to '/data/transcodes/40b12f9787f41814ec159312dc8951d3.m3u8':
  Metadata:
    encoder         : Lavf59.27.100
  Stream #0:0: Video: hevc (Main) (hvc1 / 0x31637668), yuv420p(tv, bt709), 3840x2160 [SAR 1:1 DAR 16:9], q=2-31, 24 fps, 24 tbr, 12288 tbn (default)
  Stream #0:1: Audio: eac3, 48000 Hz, 5.1(side), fltp, 768 kb/s (default)
Stream mapping:
  Stream #0:0 -> #0:0 (copy)
  Stream #0:1 -> #0:1 (copy)
Press [q] to stop, [?] for help
frame=    1 fps=0.0 q=-1.0 size=N/A time=-00:10:10.95 bitrate=N/A speed=N/A    
[hls @ 0x5627ae826c80] Opening '/data/transcodes/40b12f9787f41814ec159312dc8951d3102.mp4' for writing
[hls @ 0x5627ae826c80] Opening '/data/transcodes/40b12f9787f41814ec159312dc8951d3103.mp4' for writing
[hls @ 0x5627ae826c80] Opening '/data/transcodes/40b12f9787f41814ec159312dc8951d3104.mp4' for writing
[hls @ 0x5627ae826c80] Opening '/data/transcodes/40b12f9787f41814ec159312dc8951d3105.mp4' for writing
[hls @ 0x5627ae826c80] Opening '/data/transcodes/40b12f9787f41814ec159312dc8951d3106.mp4' for writing
[hls @ 0x5627ae826c80] Opening '/data/transcodes/40b12f9787f41814ec159312dc8951d3107.mp4' for writing
frame=  923 fps=0.0 q=-1.0 size=N/A time=00:00:38.51 bitrate=N/A speed=  77x    
[hls @ 0x5627ae826c80] Opening '/data/transcodes/40b12f9787f41814ec159312dc8951d3108.mp4' for writing
[hls @ 0x5627ae826c80] Opening '/data/transcodes/40b12f9787f41814ec159312dc8951d3109.mp4' for writing
[hls @ 0x5627ae826c80] Opening '/data/transcodes/40b12f9787f41814ec159312dc8951d3110.mp4' for writing
[hls @ 0x5627ae826c80] Opening '/data/transcodes/40b12f9787f41814ec159312dc8951d3111.mp4' for writing
[hls @ 0x5627ae826c80] Opening '/data/transcodes/40b12f9787f41814ec159312dc8951d3112.mp4' for writing
[hls @ 0x5627ae826c80] Opening '/data/transcodes/40b12f9787f41814ec159312dc8951d3113.mp4' for writing
[hls @ 0x5627ae826c80] Opening '/data/transcodes/40b12f9787f41814ec159312dc8951d3114.mp4' for writing
frame= 1937 fps=1933 q=-1.0 size=N/A time=00:01:20.75 bitrate=N/A speed=80.6x    
[hls @ 0x5627ae826c80] Opening '/data/transcodes/40b12f9787f41814ec159312dc8951d3115.mp4' for writing
[hls @ 0x5627ae826c80] Opening '/data/transcodes/40b12f9787f41814ec159312dc8951d3116.mp4' for writing
[hls @ 0x5627ae826c80] Opening '/data/transcodes/40b12f9787f41814ec159312dc8951d3117.mp4' for writing
[hls @ 0x5627ae826c80] Opening '/data/transcodes/40b12f9787f41814ec159312dc8951d3118.mp4' for writing
[hls @ 0x5627ae826c80] Opening '/data/transcodes/40b12f9787f41814ec159312dc8951d3119.mp4' for writing
[hls @ 0x5627ae826c80] Opening '/data/transcodes/40b12f9787f41814ec159312dc8951d3120.mp4' for writing
[hls @ 0x5627ae826c80] Opening '/data/transcodes/40b12f9787f41814ec159312dc8951d3121.mp4' for writing
[hls @ 0x5627ae826c80] Opening '/data/transcodes/40b12f9787f41814ec159312dc8951d3122.mp4' for writing
frame= 3085 fps=2046 q=-1.0 size=N/A time=00:02:08.56 bitrate=N/A speed=85.3x    
[hls @ 0x5627ae826c80] Opening '/data/transcodes/40b12f9787f41814ec159312dc8951d3123.mp4' for writing
[hls @ 0x5627ae826c80] Opening '/data/transcodes/40b12f9787f41814ec159312dc8951d3124.mp4' for writing
[hls @ 0x5627ae826c80] Opening '/data/transcodes/40b12f9787f41814ec159312dc8951d3125.mp4' for writing
[hls @ 0x5627ae826c80] Opening '/data/transcodes/40b12f9787f41814ec159312dc8951d3126.mp4' for writing
[hls @ 0x5627ae826c80] Opening '/data/transcodes/40b12f9787f41814ec159312dc8951d3127.mp4' for writing
[hls @ 0x5627ae826c80] Opening '/data/transcodes/40b12f9787f41814ec159312dc8951d3128.mp4' for writing
[hls @ 0x5627ae826c80] Opening '/data/transcodes/40b12f9787f41814ec159312dc8951d3129.mp4' for writing
[hls @ 0x5627ae826c80] Opening '/data/transcodes/40b12f9787f41814ec159312dc8951d3130.mp4' for writing
frame= 4177 fps=2057 q=-1.0 size=N/A time=00:02:54.03 bitrate=N/A speed=85.7x    
[hls @ 0x5627ae826c80] Opening '/data/transcodes/40b12f9787f41814ec159312dc8951d3131.mp4' for writing
[hls @ 0x5627ae826c80] Opening '/data/transcodes/40b12f9787f41814ec159312dc8951d3132.mp4' for writing
[hls @ 0x5627ae826c80] Opening '/data/transcodes/40b12f9787f41814ec159312dc8951d3133.mp4' for writing
[hls @ 0x5627ae826c80] Opening '/data/transcodes/40b12f9787f41814ec159312dc8951d3134.mp4' for writing
[hls @ 0x5627ae826c80] Opening '/data/transcodes/40b12f9787f41814ec159312dc8951d3135.mp4' for writing
frame= 4897 fps=1935 q=-1.0 size=N/A time=00:03:24.11 bitrate=N/A speed=80.6x    
[hls @ 0x5627ae826c80] Opening '/data/transcodes/40b12f9787f41814ec159312dc8951d3136.mp4' for writing
[hls @ 0x5627ae826c80] Opening '/data/transcodes/40b12f9787f41814ec159312dc8951d3137.mp4' for writing
[hls @ 0x5627ae826c80] Opening '/data/transcodes/40b12f9787f41814ec159312dc8951d3138.mp4' for writing
[hls @ 0x5627ae826c80] Opening '/data/transcodes/40b12f9787f41814ec159312dc8951d3139.mp4' for writing
frame= 5552 fps=1831 q=-1.0 size=N/A time=00:03:51.28 bitrate=N/A speed=76.3x    
[hls @ 0x5627ae826c80] Opening '/data/transcodes/40b12f9787f41814ec159312dc8951d3140.mp4' for writing
[hls @ 0x5627ae826c80] Opening '/data/transcodes/40b12f9787f41814ec159312dc8951d3141.mp4' for writing
[hls @ 0x5627ae826c80] Opening '/data/transcodes/40b12f9787f41814ec159312dc8951d3142.mp4' for writing
[hls @ 0x5627ae826c80] Opening '/data/transcodes/40b12f9787f41814ec159312dc8951d3143.mp4' for writing
[hls @ 0x5627ae826c80] Opening '/data/transcodes/40b12f9787f41814ec159312dc8951d3144.mp4' for writing
[hls @ 0x5627ae826c80] Opening '/data/transcodes/40b12f9787f41814ec159312dc8951d3145.mp4' for writing
[hls @ 0x5627ae826c80] Opening '/data/transcodes/40b12f9787f41814ec159312dc8951d3146.mp4' for writing
frame= 6481 fps=1828 q=-1.0 size=N/A time=00:04:30.03 bitrate=N/A speed=76.2x    
[hls @ 0x5627ae826c80] Opening '/data/transcodes/40b12f9787f41814ec159312dc8951d3147.mp4' for writing
[hls @ 0x5627ae826c80] Opening '/data/transcodes/40b12f9787f41814ec159312dc8951d3148.mp4' for writing
[hls @ 0x5627ae826c80] Opening '/data/transcodes/40b12f9787f41814ec159312dc8951d3149.mp4' for writing
[hls @ 0x5627ae826c80] Opening '/data/transcodes/40b12f9787f41814ec159312dc8951d3150.mp4' for writing
[hls @ 0x5627ae826c80] Opening '/data/transcodes/40b12f9787f41814ec159312dc8951d3151.mp4' for writing
[hls @ 0x5627ae826c80] Opening '/data/transcodes/40b12f9787f41814ec159312dc8951d3152.mp4' for writing
[hls @ 0x5627ae826c80] Opening '/data/transcodes/40b12f9787f41814ec159312dc8951d3153.mp4' for writing
[hls @ 0x5627ae826c80] Opening '/data/transcodes/40b12f9787f41814ec159312dc8951d3154.mp4' for writing
[hls @ 0x5627ae826c80] Opening '/data/transcodes/40b12f9787f41814ec159312dc8951d3155.mp4' for writing
frame= 7908 fps=1946 q=-1.0 size=N/A time=00:05:29.55 bitrate=N/A speed=81.1x    
[hls @ 0x5627ae826c80] Opening '/data/transcodes/40b12f9787f41814ec159312dc8951d3156.mp4' for writing
[hls @ 0x5627ae826c80] Opening '/data/transcodes/40b12f9787f41814ec159312dc8951d3157.mp4' for writing
[hls @ 0x5627ae826c80] Opening '/data/transcodes/40b12f9787f41814ec159312dc8951d3158.mp4' for writing
[hls @ 0x5627ae826c80] Opening '/data/transcodes/40b12f9787f41814ec159312dc8951d3159.mp4' for writing
[hls @ 0x5627ae826c80] Opening '/data/transcodes/40b12f9787f41814ec159312dc8951d3160.mp4' for writing
[hls @ 0x5627ae826c80] Opening '/data/transcodes/40b12f9787f41814ec159312dc8951d3161.mp4' for writing
[hls @ 0x5627ae826c80] Opening '/data/transcodes/40b12f9787f41814ec159312dc8951d3162.mp4' for writing
[hls @ 0x5627ae826c80] Opening '/data/transcodes/40b12f9787f41814ec159312dc8951d3163.mp4' for writing
[hls @ 0x5627ae826c80] Opening '/data/transcodes/40b12f9787f41814ec159312dc8951d3164.mp4' for writing
frame= 9127 fps=2000 q=-1.0 size=N/A time=00:06:20.27 bitrate=N/A speed=83.3x    
[hls @ 0x5627ae826c80] Opening '/data/transcodes/40b12f9787f41814ec159312dc8951d3165.mp4' for writing
[hls @ 0x5627ae826c80] Opening '/data/transcodes/40b12f9787f41814ec159312dc8951d3166.mp4' for writing
[hls @ 0x5627ae826c80] Opening '/data/transcodes/40b12f9787f41814ec159312dc8951d3167.mp4' for writing
[hls @ 0x5627ae826c80] Opening '/data/transcodes/40b12f9787f41814ec159312dc8951d3168.mp4' for writing
[hls @ 0x5627ae826c80] Opening '/data/transcodes/40b12f9787f41814ec159312dc8951d3169.mp4' for writing
[hls @ 0x5627ae826c80] Opening '/data/transcodes/40b12f9787f41814ec159312dc8951d3170.mp4' for writing
frame=10005 fps=1976 q=-1.0 size=N/A time=00:06:56.91 bitrate=N/A speed=82.3x    
[hls @ 0x5627ae826c80] Opening '/data/transcodes/40b12f9787f41814ec159312dc8951d3171.mp4' for writing
[hls @ 0x5627ae826c80] Opening '/data/transcodes/40b12f9787f41814ec159312dc8951d3172.mp4' for writing
[hls @ 0x5627ae826c80] Opening '/data/transcodes/40b12f9787f41814ec159312dc8951d3173.mp4' for writing
[hls @ 0x5627ae826c80] Opening '/data/transcodes/40b12f9787f41814ec159312dc8951d3174.mp4' for writing
[hls @ 0x5627ae826c80] Opening '/data/transcodes/40b12f9787f41814ec159312dc8951d3175.mp4' for writing
[hls @ 0x5627ae826c80] Opening '/data/transcodes/40b12f9787f41814ec159312dc8951d3176.mp4' for writing
[hls @ 0x5627ae826c80] Opening '/data/transcodes/40b12f9787f41814ec159312dc8951d3177.mp4' for writing
frame=10993 fps=1976 q=-1.0 size=N/A time=00:07:38.03 bitrate=N/A speed=82.3x    
[hls @ 0x5627ae826c80] Opening '/data/transcodes/40b12f9787f41814ec159312dc8951d3178.mp4' for writing
[hls @ 0x5627ae826c80] Opening '/data/transcodes/40b12f9787f41814ec159312dc8951d3179.mp4' for writing
[hls @ 0x5627ae826c80] Opening '/data/transcodes/40b12f9787f41814ec159312dc8951d3180.mp4' for writing
[hls @ 0x5627ae826c80] Opening '/data/transcodes/40b12f9787f41814ec159312dc8951d3181.mp4' for writing
[hls @ 0x5627ae826c80] Opening '/data/transcodes/40b12f9787f41814ec159312dc8951d3182.mp4' for writing
[hls @ 0x5627ae826c80] Opening '/data/transcodes/40b12f9787f41814ec159312dc8951d3183.mp4' for writing
[hls @ 0x5627ae826c80] Opening '/data/transcodes/40b12f9787f41814ec159312dc8951d3184.mp4' for writing
[hls @ 0x5627ae826c80] Opening '/data/transcodes/40b12f9787f41814ec159312dc8951d3185.mp4' for writing
[hls @ 0x5627ae826c80] Opening '/data/transcodes/40b12f9787f41814ec159312dc8951d3186.mp4' for writing
frame=12241 fps=2006 q=-1.0 size=N/A time=00:08:30.03 bitrate=N/A speed=83.6x    
[hls @ 0x5627ae826c80] Opening '/data/transcodes/40b12f9787f41814ec159312dc8951d3187.mp4' for writing
[hls @ 0x5627ae826c80] Opening '/data/transcodes/40b12f9787f41814ec159312dc8951d3188.mp4' for writing
[hls @ 0x5627ae826c80] Opening '/data/transcodes/40b12f9787f41814ec159312dc8951d3189.mp4' for writing
[hls @ 0x5627ae826c80] Opening '/data/transcodes/40b12f9787f41814ec159312dc8951d3190.mp4' for writing
[hls @ 0x5627ae826c80] Opening '/data/transcodes/40b12f9787f41814ec159312dc8951d3191.mp4' for writing
[hls @ 0x5627ae826c80] Opening '/data/transcodes/40b12f9787f41814ec159312dc8951d3192.mp4' for writing
[hls @ 0x5627ae826c80] Opening '/data/transcodes/40b12f9787f41814ec159312dc8951d3193.mp4' for writing
[hls @ 0x5627ae826c80] Opening '/data/transcodes/40b12f9787f41814ec159312dc8951d3194.mp4' for writing
frame=13393 fps=2027 q=-1.0 size=N/A time=00:09:18.03 bitrate=N/A speed=84.4x    
[hls @ 0x5627ae826c80] Opening '/data/transcodes/40b12f9787f41814ec159312dc8951d3195.mp4' for writing
[hls @ 0x5627ae826c80] Opening '/data/transcodes/40b12f9787f41814ec159312dc8951d3196.mp4' for writing
[hls @ 0x5627ae826c80] Opening '/data/transcodes/40b12f9787f41814ec159312dc8951d3197.mp4' for writing
[hls @ 0x5627ae826c80] Opening '/data/transcodes/40b12f9787f41814ec159312dc8951d3198.mp4' for writing
[hls @ 0x5627ae826c80] Opening '/data/transcodes/40b12f9787f41814ec159312dc8951d3199.mp4' for writing
[hls @ 0x5627ae826c80] Opening '/data/transcodes/40b12f9787f41814ec159312dc8951d3200.mp4' for writing
[hls @ 0x5627ae826c80] Opening '/data/transcodes/40b12f9787f41814ec159312dc8951d3201.mp4' for writing
frame=14507 fps=2040 q=-1.0 size=N/A time=00:10:04.49 bitrate=N/A speed=  85x    
[hls @ 0x5627ae826c80] Opening '/data/transcodes/40b12f9787f41814ec159312dc8951d3202.mp4' for writing
[hls @ 0x5627ae826c80] Opening '/data/transcodes/40b12f9787f41814ec159312dc8951d3203.mp4' for writing
[hls @ 0x5627ae826c80] Opening '/data/transcodes/40b12f9787f41814ec159312dc8951d3204.mp4' for writing
[hls @ 0x5627ae826c80] Opening '/data/transcodes/40b12f9787f41814ec159312dc8951d3205.mp4' for writing
[hls @ 0x5627ae826c80] Opening '/data/transcodes/40b12f9787f41814ec159312dc8951d3206.mp4' for writing
[hls @ 0x5627ae826c80] Opening '/data/transcodes/40b12f9787f41814ec159312dc8951d3207.mp4' for writing
[hls @ 0x5627ae826c80] Opening '/data/transcodes/40b12f9787f41814ec159312dc8951d3208.mp4' for writing
frame=15414 fps=2024 q=-1.0 size=N/A time=00:10:42.25 bitrate=N/A speed=84.3x    
[hls @ 0x5627ae826c80] Opening '/data/transcodes/40b12f9787f41814ec159312dc8951d3209.mp4' for writing
[hls @ 0x5627ae826c80] Opening '/data/transcodes/40b12f9787f41814ec159312dc8951d3210.mp4' for writing
[hls @ 0x5627ae826c80] Opening '/data/transcodes/40b12f9787f41814ec159312dc8951d3211.mp4' for writing
[hls @ 0x5627ae826c80] Opening '/data/transcodes/40b12f9787f41814ec159312dc8951d3212.mp4' for writing
[hls @ 0x5627ae826c80] Opening '/data/transcodes/40b12f9787f41814ec159312dc8951d3213.mp4' for writing
[hls @ 0x5627ae826c80] Opening '/data/transcodes/40b12f9787f41814ec159312dc8951d3214.mp4' for writing
[hls @ 0x5627ae826c80] Opening '/data/transcodes/40b12f9787f41814ec159312dc8951d3215.mp4' for writing
[hls @ 0x5627ae826c80] Opening '/data/transcodes/40b12f9787f41814ec159312dc8951d3216.mp4' for writing
[hls @ 0x5627ae826c80] Opening '/data/transcodes/40b12f9787f41814ec159312dc8951d3217.mp4' for writing
frame=16725 fps=2061 q=-1.0 size=N/A time=00:11:36.84 bitrate=N/A speed=85.9x    
[hls @ 0x5627ae826c80] Opening '/data/transcodes/40b12f9787f41814ec159312dc8951d3218.mp4' for writing
[hls @ 0x5627ae826c80] Opening '/data/transcodes/40b12f9787f41814ec159312dc8951d3219.mp4' for writing
[hls @ 0x5627ae826c80] Opening '/data/transcodes/40b12f9787f41814ec159312dc8951d3220.mp4' for writing
[hls @ 0x5627ae826c80] Opening '/data/transcodes/40b12f9787f41814ec159312dc8951d3221.mp4' for writing
[hls @ 0x5627ae826c80] Opening '/data/transcodes/40b12f9787f41814ec159312dc8951d3222.mp4' for writing
[hls @ 0x5627ae826c80] Opening '/data/transcodes/40b12f9787f41814ec159312dc8951d3223.mp4' for writing
[hls @ 0x5627ae826c80] Opening '/data/transcodes/40b12f9787f41814ec159312dc8951d3224.mp4' for writing
[hls @ 0x5627ae826c80] Opening '/data/transcodes/40b12f9787f41814ec159312dc8951d3225.mp4' for writing
[hls @ 0x5627ae826c80] Opening '/data/transcodes/40b12f9787f41814ec159312dc8951d3226.mp4' for writing
frame=18011 fps=2091 q=-1.0 size=N/A time=00:12:30.51 bitrate=N/A speed=87.1x    
[hls @ 0x5627ae826c80] Opening '/data/transcodes/40b12f9787f41814ec159312dc8951d3227.mp4' for writing
[hls @ 0x5627ae826c80] Opening '/data/transcodes/40b12f9787f41814ec159312dc8951d3228.mp4' for writing
[hls @ 0x5627ae826c80] Opening '/data/transcodes/40b12f9787f41814ec159312dc8951d3229.mp4' for writing
[hls @ 0x5627ae826c80] Opening '/data/transcodes/40b12f9787f41814ec159312dc8951d3230.mp4' for writing
[hls @ 0x5627ae826c80] Opening '/data/transcodes/40b12f9787f41814ec159312dc8951d3231.mp4' for writing
[hls @ 0x5627ae826c80] Opening '/data/transcodes/40b12f9787f41814ec159312dc8951d3232.mp4' for writing
[hls @ 0x5627ae826c80] Opening '/data/transcodes/40b12f9787f41814ec159312dc8951d3233.mp4' for writing
[hls @ 0x5627ae826c80] Opening '/data/transcodes/40b12f9787f41814ec159312dc8951d3234.mp4' for writing
[hls @ 0x5627ae826c80] Opening '/data/transcodes/40b12f9787f41814ec159312dc8951d3235.mp4' for writing
[hls @ 0x5627ae826c80] Opening '/data/transcodes/40b12f9787f41814ec159312dc8951d3236.mp4' for writing
frame=19456 fps=2134 q=-1.0 size=N/A time=00:13:30.60 bitrate=N/A speed=88.9x    
[hls @ 0x5627ae826c80] Opening '/data/transcodes/40b12f9787f41814ec159312dc8951d3237.mp4' for writing
[hls @ 0x5627ae826c80] Opening '/data/transcodes/40b12f9787f41814ec159312dc8951d3238.mp4' for writing
[hls @ 0x5627ae826c80] Opening '/data/transcodes/40b12f9787f41814ec159312dc8951d3239.mp4' for writing
[hls @ 0x5627ae826c80] Opening '/data/transcodes/40b12f9787f41814ec159312dc8951d3240.mp4' for writing
[hls @ 0x5627ae826c80] Opening '/data/transcodes/40b12f9787f41814ec159312dc8951d3241.mp4' for writing
[hls @ 0x5627ae826c80] Opening '/data/transcodes/40b12f9787f41814ec159312dc8951d3242.mp4' for writing
[hls @ 0x5627ae826c80] Opening '/data/transcodes/40b12f9787f41814ec159312dc8951d3243.mp4' for writing
[hls @ 0x5627ae826c80] Opening '/data/transcodes/40b12f9787f41814ec159312dc8951d3244.mp4' for writing
[hls @ 0x5627ae826c80] Opening '/data/transcodes/40b12f9787f41814ec159312dc8951d3245.mp4' for writing
frame=20737 fps=2153 q=-1.0 size=N/A time=00:14:24.01 bitrate=N/A speed=89.7x    
[hls @ 0x5627ae826c80] Opening '/data/transcodes/40b12f9787f41814ec159312dc8951d3246.mp4' for writing
[hls @ 0x5627ae826c80] Opening '/data/transcodes/40b12f9787f41814ec159312dc8951d3247.mp4' for writing
[hls @ 0x5627ae826c80] Opening '/data/transcodes/40b12f9787f41814ec159312dc8951d3248.mp4' for writing
[hls @ 0x5627ae826c80] Opening '/data/transcodes/40b12f9787f41814ec159312dc8951d3249.mp4' for writing
[hls @ 0x5627ae826c80] Opening '/data/transcodes/40b12f9787f41814ec159312dc8951d3250.mp4' for writing
[hls @ 0x5627ae826c80] Opening '/data/transcodes/40b12f9787f41814ec159312dc8951d3251.mp4' for writing
[hls @ 0x5627ae826c80] Opening '/data/transcodes/40b12f9787f41814ec159312dc8951d3252.mp4' for writing
[hls @ 0x5627ae826c80] Opening '/data/transcodes/40b12f9787f41814ec159312dc8951d3253.mp4' for writing
[hls @ 0x5627ae826c80] Opening '/data/transcodes/40b12f9787f41814ec159312dc8951d3254.mp4' for writing
[hls @ 0x5627ae826c80] Opening '/data/transcodes/40b12f9787f41814ec159312dc8951d3255.mp4' for writing
frame=22263 fps=2198 q=-1.0 size=N/A time=00:15:27.63 bitrate=N/A speed=91.6x    
[hls @ 0x5627ae826c80] Opening '/data/transcodes/40b12f9787f41814ec159312dc8951d3256.mp4' for writing
[hls @ 0x5627ae826c80] Opening '/data/transcodes/40b12f9787f41814ec159312dc8951d3257.mp4' for writing
[hls @ 0x5627ae826c80] Opening '/data/transcodes/40b12f9787f41814ec159312dc8951d3258.mp4' for writing
[hls @ 0x5627ae826c80] Opening '/data/transcodes/40b12f9787f41814ec159312dc8951d3259.mp4' for writing
[hls @ 0x5627ae826c80] Opening '/data/transcodes/40b12f9787f41814ec159312dc8951d3260.mp4' for writing
[hls @ 0x5627ae826c80] Opening '/data/transcodes/40b12f9787f41814ec159312dc8951d3261.mp4' for writing
[hls @ 0x5627ae826c80] Opening '/data/transcodes/40b12f9787f41814ec159312dc8951d3262.mp4' for writing
[hls @ 0x5627ae826c80] Opening '/data/transcodes/40b12f9787f41814ec159312dc8951d3263.mp4' for writing
frame=23441 fps=2205 q=-1.0 size=N/A time=00:16:16.75 bitrate=N/A speed=91.9x    
[hls @ 0x5627ae826c80] Opening '/data/transcodes/40b12f9787f41814ec159312dc8951d3264.mp4' for writing
[hls @ 0x5627ae826c80] Opening '/data/transcodes/40b12f9787f41814ec159312dc8951d3265.mp4' for writing
[hls @ 0x5627ae826c80] Opening '/data/transcodes/40b12f9787f41814ec159312dc8951d3266.mp4' for writing
[hls @ 0x5627ae826c80] Opening '/data/transcodes/40b12f9787f41814ec159312dc8951d3267.mp4' for writing
[hls @ 0x5627ae826c80] Opening '/data/transcodes/40b12f9787f41814ec159312dc8951d3268.mp4' for writing
[hls @ 0x5627ae826c80] Opening '/data/transcodes/40b12f9787f41814ec159312dc8951d3269.mp4' for writing
[hls @ 0x5627ae826c80] Opening '/data/transcodes/40b12f9787f41814ec159312dc8951d3270.mp4' for writing
[hls @ 0x5627ae826c80] Opening '/data/transcodes/40b12f9787f41814ec159312dc8951d3271.mp4' for writing
[hls @ 0x5627ae826c80] Opening '/data/transcodes/40b12f9787f41814ec159312dc8951d3272.mp4' for writing
[hls @ 0x5627ae826c80] Opening '/data/transcodes/40b12f9787f41814ec159312dc8951d3273.mp4' for writing
frame=24769 fps=2224 q=-1.0 size=N/A time=00:17:12.01 bitrate=N/A speed=92.7x    
[hls @ 0x5627ae826c80] Opening '/data/transcodes/40b12f9787f41814ec159312dc8951d3274.mp4' for writing
[hls @ 0x5627ae826c80] Opening '/data/transcodes/40b12f9787f41814ec159312dc8951d3275.mp4' for writing
[hls @ 0x5627ae826c80] Opening '/data/transcodes/40b12f9787f41814ec159312dc8951d3276.mp4' for writing
[hls @ 0x5627ae826c80] Opening '/data/transcodes/40b12f9787f41814ec159312dc8951d3277.mp4' for writing
[hls @ 0x5627ae826c80] Opening '/data/transcodes/40b12f9787f41814ec159312dc8951d3278.mp4' for writing
[hls @ 0x5627ae826c80] Opening '/data/transcodes/40b12f9787f41814ec159312dc8951d3279.mp4' for writing
[hls @ 0x5627ae826c80] Opening '/data/transcodes/40b12f9787f41814ec159312dc8951d3280.mp4' for writing
[hls @ 0x5627ae826c80] Opening '/data/transcodes/40b12f9787f41814ec159312dc8951d3281.mp4' for writing
[hls @ 0x5627ae826c80] Opening '/data/transcodes/40b12f9787f41814ec159312dc8951d3282.mp4' for writing
frame=26065 fps=2239 q=-1.0 size=N/A time=00:18:06.03 bitrate=N/A speed=93.3x    
[hls @ 0x5627ae826c80] Opening '/data/transcodes/40b12f9787f41814ec159312dc8951d3283.mp4' for writing
[hls @ 0x5627ae826c80] Opening '/data/transcodes/40b12f9787f41814ec159312dc8951d3284.mp4' for writing
[hls @ 0x5627ae826c80] Opening '/data/transcodes/40b12f9787f41814ec159312dc8951d3285.mp4' for writing
[hls @ 0x5627ae826c80] Opening '/data/transcodes/40b12f9787f41814ec159312dc8951d3286.mp4' for writing
[hls @ 0x5627ae826c80] Opening '/data/transcodes/40b12f9787f41814ec159312dc8951d3287.mp4' for writing
[hls @ 0x5627ae826c80] Opening '/data/transcodes/40b12f9787f41814ec159312dc8951d3288.mp4' for writing
[hls @ 0x5627ae826c80] Opening '/data/transcodes/40b12f9787f41814ec159312dc8951d3289.mp4' for writing
[hls @ 0x5627ae826c80] Opening '/data/transcodes/40b12f9787f41814ec159312dc8951d3290.mp4' for writing
[hls @ 0x5627ae826c80] Opening '/data/transcodes/40b12f9787f41814ec159312dc8951d3291.mp4' for writing
frame=27361 fps=2251 q=-1.0 size=N/A time=00:19:00.01 bitrate=N/A speed=93.8x    
[hls @ 0x5627ae826c80] Opening '/data/transcodes/40b12f9787f41814ec159312dc8951d3292.mp4' for writing
[hls @ 0x5627ae826c80] Opening '/data/transcodes/40b12f9787f41814ec159312dc8951d3293.mp4' for writing
[hls @ 0x5627ae826c80] Opening '/data/transcodes/40b12f9787f41814ec159312dc8951d3294.mp4' for writing
[hls @ 0x5627ae826c80] Opening '/data/transcodes/40b12f9787f41814ec159312dc8951d3295.mp4' for writing
[hls @ 0x5627ae826c80] Opening '/data/transcodes/40b12f9787f41814ec159312dc8951d3296.mp4' for writing
[hls @ 0x5627ae826c80] Opening '/data/transcodes/40b12f9787f41814ec159312dc8951d3297.mp4' for writing
[hls @ 0x5627ae826c80] Opening '/data/transcodes/40b12f9787f41814ec159312dc8951d3298.mp4' for writing
[hls @ 0x5627ae826c80] Opening '/data/transcodes/40b12f9787f41814ec159312dc8951d3299.mp4' for writing
[hls @ 0x5627ae826c80] Opening '/data/transcodes/40b12f9787f41814ec159312dc8951d3300.mp4' for writing
[hls @ 0x5627ae826c80] Opening '/data/transcodes/40b12f9787f41814ec159312dc8951d3301.mp4' for writing
[hls @ 0x5627ae826c80] Opening '/data/transcodes/40b12f9787f41814ec159312dc8951d3302.mp4' for writing
frame=28945 fps=2285 q=-1.0 size=N/A time=00:20:06.03 bitrate=N/A speed=95.2x    
[hls @ 0x5627ae826c80] Opening '/data/transcodes/40b12f9787f41814ec159312dc8951d3303.mp4' for writing
[hls @ 0x5627ae826c80] Opening '/data/transcodes/40b12f9787f41814ec159312dc8951d3304.mp4' for writing
[hls @ 0x5627ae826c80] Opening '/data/transcodes/40b12f9787f41814ec159312dc8951d3305.mp4' for writing
[hls @ 0x5627ae826c80] Opening '/data/transcodes/40b12f9787f41814ec159312dc8951d3306.mp4' for writing
[hls @ 0x5627ae826c80] Opening '/data/transcodes/40b12f9787f41814ec159312dc8951d3307.mp4' for writing
[hls @ 0x5627ae826c80] Opening '/data/transcodes/40b12f9787f41814ec159312dc8951d3308.mp4' for writing
[hls @ 0x5627ae826c80] Opening '/data/transcodes/40b12f9787f41814ec159312dc8951d3309.mp4' for writing
[hls @ 0x5627ae826c80] Opening '/data/transcodes/40b12f9787f41814ec159312dc8951d3310.mp4' for writing
[hls @ 0x5627ae826c80] Opening '/data/transcodes/40b12f9787f41814ec159312dc8951d3311.mp4' for writing
frame=30360 fps=2306 q=-1.0 size=N/A time=00:21:04.97 bitrate=N/A speed=96.1x    
[hls @ 0x5627ae826c80] Opening '/data/transcodes/40b12f9787f41814ec159312dc8951d3312.mp4' for writing
[hls @ 0x5627ae826c80] Opening '/data/transcodes/40b12f9787f41814ec159312dc8951d3313.mp4' for writing
[hls @ 0x5627ae826c80] Opening '/data/transcodes/40b12f9787f41814ec159312dc8951d3314.mp4' for writing
[hls @ 0x5627ae826c80] Opening '/data/transcodes/40b12f9787f41814ec159312dc8951d3315.mp4' for writing
[hls @ 0x5627ae826c80] Opening '/data/transcodes/40b12f9787f41814ec159312dc8951d3316.mp4' for writing
[hls @ 0x5627ae826c80] Opening '/data/transcodes/40b12f9787f41814ec159312dc8951d3317.mp4' for writing
[hls @ 0x5627ae826c80] Opening '/data/transcodes/40b12f9787f41814ec159312dc8951d3318.mp4' for writing
[hls @ 0x5627ae826c80] Opening '/data/transcodes/40b12f9787f41814ec159312dc8951d3319.mp4' for writing
[hls @ 0x5627ae826c80] Opening '/data/transcodes/40b12f9787f41814ec159312dc8951d3320.mp4' for writing
[hls @ 0x5627ae826c80] Opening '/data/transcodes/40b12f9787f41814ec159312dc8951d3321.mp4' for writing
frame=31704 fps=2319 q=-1.0 size=N/A time=00:22:01.00 bitrate=N/A speed=96.6x    
[hls @ 0x5627ae826c80] Opening '/data/transcodes/40b12f9787f41814ec159312dc8951d3322.mp4' for writing
[hls @ 0x5627ae826c80] Opening '/data/transcodes/40b12f9787f41814ec159312dc8951d3323.mp4' for writing
[hls @ 0x5627ae826c80] Opening '/data/transcodes/40b12f9787f41814ec159312dc8951d3324.mp4' for writing
[hls @ 0x5627ae826c80] Opening '/data/transcodes/40b12f9787f41814ec159312dc8951d3325.mp4' for writing
[hls @ 0x5627ae826c80] Opening '/data/transcodes/40b12f9787f41814ec159312dc8951d3326.mp4' for writing
[hls @ 0x5627ae826c80] Opening '/data/transcodes/40b12f9787f41814ec159312dc8951d3327.mp4' for writing
[hls @ 0x5627ae826c80] Opening '/data/transcodes/40b12f9787f41814ec159312dc8951d3328.mp4' for writing
frame=32689 fps=2305 q=-1.0 size=N/A time=00:22:42.03 bitrate=N/A speed=  96x    
[hls @ 0x5627ae826c80] Opening '/data/transcodes/40b12f9787f41814ec159312dc8951d3329.mp4' for writing
[hls @ 0x5627ae826c80] Opening '/data/transcodes/40b12f9787f41814ec159312dc8951d3330.mp4' for writing
[hls @ 0x5627ae826c80] Opening '/data/transcodes/40b12f9787f41814ec159312dc8951d3331.mp4' for writing
[hls @ 0x5627ae826c80] Opening '/data/transcodes/40b12f9787f41814ec159312dc8951d3332.mp4' for writing
[hls @ 0x5627ae826c80] Opening '/data/transcodes/40b12f9787f41814ec159312dc8951d3333.mp4' for writing
[hls @ 0x5627ae826c80] Opening '/data/transcodes/40b12f9787f41814ec159312dc8951d3334.mp4' for writing
[hls @ 0x5627ae826c80] Opening '/data/transcodes/40b12f9787f41814ec159312dc8951d3335.mp4' for writing
[hls @ 0x5627ae826c80] Opening '/data/transcodes/40b12f9787f41814ec159312dc8951d3336.mp4' for writing
[hls @ 0x5627ae826c80] Opening '/data/transcodes/40b12f9787f41814ec159312dc8951d3337.mp4' for writing
[hls @ 0x5627ae826c80] Opening '/data/transcodes/40b12f9787f41814ec159312dc8951d3338.mp4' for writing
frame=34129 fps=2318 q=-1.0 size=N/A time=00:23:42.03 bitrate=N/A speed=96.6x    
[hls @ 0x5627ae826c80] Opening '/data/transcodes/40b12f9787f41814ec159312dc8951d3339.mp4' for writing
[hls @ 0x5627ae826c80] Opening '/data/transcodes/40b12f9787f41814ec159312dc8951d3340.mp4' for writing
[hls @ 0x5627ae826c80] Opening '/data/transcodes/40b12f9787f41814ec159312dc8951d3341.mp4' for writing
[hls @ 0x5627ae826c80] Opening '/data/transcodes/40b12f9787f41814ec159312dc8951d3342.mp4' for writing
[hls @ 0x5627ae826c80] Opening '/data/transcodes/40b12f9787f41814ec159312dc8951d3343.mp4' for writing
[hls @ 0x5627ae826c80] Opening '/data/transcodes/40b12f9787f41814ec159312dc8951d3344.mp4' for writing
[hls @ 0x5627ae826c80] Opening '/data/transcodes/40b12f9787f41814ec159312dc8951d3345.mp4' for writing
[hls @ 0x5627ae826c80] Opening '/data/transcodes/40b12f9787f41814ec159312dc8951d3346.mp4' for writing
[hls @ 0x5627ae826c80] Opening '/data/transcodes/40b12f9787f41814ec159312dc8951d3347.mp4' for writing
frame=35425 fps=2327 q=-1.0 size=N/A time=00:24:35.98 bitrate=N/A speed=96.9x    
[hls @ 0x5627ae826c80] Opening '/data/transcodes/40b12f9787f41814ec159312dc8951d3348.mp4' for writing
[hls @ 0x5627ae826c80] Opening '/data/transcodes/40b12f9787f41814ec159312dc8951d3349.mp4' for writing
[hls @ 0x5627ae826c80] Opening '/data/transcodes/40b12f9787f41814ec159312dc8951d3350.mp4' for writing
[hls @ 0x5627ae826c80] Opening '/data/transcodes/40b12f9787f41814ec159312dc8951d3351.mp4' for writing
[hls @ 0x5627ae826c80] Opening '/data/transcodes/40b12f9787f41814ec159312dc8951d3352.mp4' for writing
[hls @ 0x5627ae826c80] Opening '/data/transcodes/40b12f9787f41814ec159312dc8951d3353.mp4' for writing
[hls @ 0x5627ae826c80] Opening '/data/transcodes/40b12f9787f41814ec159312dc8951d3354.mp4' for writing
[hls @ 0x5627ae826c80] Opening '/data/transcodes/40b12f9787f41814ec159312dc8951d3355.mp4' for writing
[hls @ 0x5627ae826c80] Opening '/data/transcodes/40b12f9787f41814ec159312dc8951d3356.mp4' for writing
frame=36864 fps=2344 q=-1.0 size=N/A time=00:25:35.98 bitrate=N/A speed=97.7x    
[hls @ 0x5627ae826c80] Opening '/data/transcodes/40b12f9787f41814ec159312dc8951d3357.mp4' for writing
[hls @ 0x5627ae826c80] Opening '/data/transcodes/40b12f9787f41814ec159312dc8951d3358.mp4' for writing
[hls @ 0x5627ae826c80] Opening '/data/transcodes/40b12f9787f41814ec159312dc8951d3359.mp4' for writing
[hls @ 0x5627ae826c80] Opening '/data/transcodes/40b12f9787f41814ec159312dc8951d3360.mp4' for writing
[hls @ 0x5627ae826c80] Opening '/data/transcodes/40b12f9787f41814ec159312dc8951d3361.mp4' for writing
[hls @ 0x5627ae826c80] Opening '/data/transcodes/40b12f9787f41814ec159312dc8951d3362.mp4' for writing
[hls @ 0x5627ae826c80] Opening '/data/transcodes/40b12f9787f41814ec159312dc8951d3363.mp4' for writing
[hls @ 0x5627ae826c80] Opening '/data/transcodes/40b12f9787f41814ec159312dc8951d3364.mp4' for writing
[hls @ 0x5627ae826c80] Opening '/data/transcodes/40b12f9787f41814ec159312dc8951d3365.mp4' for writing
[hls @ 0x5627ae826c80] Opening '/data/transcodes/40b12f9787f41814ec159312dc8951d3366.mp4' for writing
frame=38161 fps=2350 q=-1.0 size=N/A time=00:26:30.03 bitrate=N/A speed=97.9x    
[hls @ 0x5627ae826c80] Opening '/data/transcodes/40b12f9787f41814ec159312dc8951d3367.mp4' for writing
[hls @ 0x5627ae826c80] Opening '/data/transcodes/40b12f9787f41814ec159312dc8951d3368.mp4' for writing
[hls @ 0x5627ae826c80] Opening '/data/transcodes/40b12f9787f41814ec159312dc8951d3369.mp4' for writing
[hls @ 0x5627ae826c80] Opening '/data/transcodes/40b12f9787f41814ec159312dc8951d3370.mp4' for writing
[hls @ 0x5627ae826c80] Opening '/data/transcodes/40b12f9787f41814ec159312dc8951d3371.mp4' for writing
[hls @ 0x5627ae826c80] Opening '/data/transcodes/40b12f9787f41814ec159312dc8951d3372.mp4' for writing
frame=39126 fps=2338 q=-1.0 size=N/A time=00:27:10.25 bitrate=N/A speed=97.4x    
[hls @ 0x5627ae826c80] Opening '/data/transcodes/40b12f9787f41814ec159312dc8951d3373.mp4' for writing
[hls @ 0x5627ae826c80] Opening '/data/transcodes/40b12f9787f41814ec159312dc8951d3374.mp4' for writing
[hls @ 0x5627ae826c80] Opening '/data/transcodes/40b12f9787f41814ec159312dc8951d3375.mp4' for writing
[hls @ 0x5627ae826c80] Opening '/data/transcodes/40b12f9787f41814ec159312dc8951d3376.mp4' for writing
[hls @ 0x5627ae826c80] Opening '/data/transcodes/40b12f9787f41814ec159312dc8951d3377.mp4' for writing
[hls @ 0x5627ae826c80] Opening '/data/transcodes/40b12f9787f41814ec159312dc8951d3378.mp4' for writing
[hls @ 0x5627ae826c80] Opening '/data/transcodes/40b12f9787f41814ec159312dc8951d3379.mp4' for writing
[hls @ 0x5627ae826c80] Opening '/data/transcodes/40b12f9787f41814ec159312dc8951d3380.mp4' for writing
[hls @ 0x5627ae826c80] Opening '/data/transcodes/40b12f9787f41814ec159312dc8951d3381.mp4' for writing
[hls @ 0x5627ae826c80] Opening '/data/transcodes/40b12f9787f41814ec159312dc8951d3382.mp4' for writing
frame=40556 fps=2353 q=-1.0 size=N/A time=00:28:09.87 bitrate=N/A speed=  98x    
[hls @ 0x5627ae826c80] Opening '/data/transcodes/40b12f9787f41814ec159312dc8951d3383.mp4' for writing
[hls @ 0x5627ae826c80] Opening '/data/transcodes/40b12f9787f41814ec159312dc8951d3384.mp4' for writing
[hls @ 0x5627ae826c80] Opening '/data/transcodes/40b12f9787f41814ec159312dc8951d3385.mp4' for writing
[hls @ 0x5627ae826c80] Opening '/data/transcodes/40b12f9787f41814ec159312dc8951d3386.mp4' for writing
[hls @ 0x5627ae826c80] Opening '/data/transcodes/40b12f9787f41814ec159312dc8951d3387.mp4' for writing
[hls @ 0x5627ae826c80] Opening '/data/transcodes/40b12f9787f41814ec159312dc8951d3388.mp4' for writing
[hls @ 0x5627ae826c80] Opening '/data/transcodes/40b12f9787f41814ec159312dc8951d3389.mp4' for writing
[hls @ 0x5627ae826c80] Opening '/data/transcodes/40b12f9787f41814ec159312dc8951d3390.mp4' for writing
[hls @ 0x5627ae826c80] Opening '/data/transcodes/40b12f9787f41814ec159312dc8951d3391.mp4' for writing
[hls @ 0x5627ae826c80] Opening '/data/transcodes/40b12f9787f41814ec159312dc8951d3392.mp4' for writing


[q] command received. Exiting.

[hls @ 0x5627ae826c80] Opening '/data/transcodes/40b12f9787f41814ec159312dc8951d3393.mp4' for writing
frame=41919 fps=2368 q=-1.0 Lsize=N/A time=00:29:06.60 bitrate=N/A speed=98.7x    
video:2874452kB audio:163743kB subtitle:0kB other streams:0kB global headers:0kB muxing overhead: unknown